<?xml version="1.0" encoding="UTF-8"?>
<!-- Generator: visioncortex VTracer 0.6.0 -->
<svg version="1.1" xmlns="http://www.w3.org/2000/svg" width="744" height="1052">
<path d="M0 0 C6.372216468430793 0.6068777588981789 10.567084443873682 3.178053560771218 14.75 7.9375 C19.248032352355494 14.059821812928305 19.80501635003543 19.57143140283722 19 27 C17.26065015856568 33.67618711592445 13.853718564516953 38.36183228659502 8 42 C0.03410503669670106 46.18923559823122 -9.484027010156183 46.15546566370796 -18.1328125 44.34375 C-25.356573014225432 42.06049054591239 -29.424557650076736 38.728197596614905 -33.0234375 32.12109375 C-36.03158903235783 25.290657931114197 -36.11456214647046 18.13401470765166 -33.4375 11.1875 C-31.235570974210418 6.791422616356556 -28.437347410430675 4.108932855279988 -24 2 C-20.5625 1.1875 -20.5625 1.1875 -18 1 C-17.66999999999996 3.6399999999999864 -17.340000000000032 6.279999999999973 -17 9 C-17.554296874999977 9.302929687500011 -18.108593749999955 9.605859375000023 -18.6796875 9.91796875 C-23.176620978773713 12.492399550352957 -23.176620978773713 12.492399550352957 -26.5625 16.3125 C-27.28877522103869 20.773904929237517 -27.214071581373673 24.790389721899885 -25.0234375 28.77734375 C-22.14083151887462 32.58052389929122 -19.501682827772015 33.81790343011744 -15 35 C-5.975873879457481 35.79777004739583 0.8515124619968901 35.52264936810735 8.375 30.375 C10.833905548597272 26.781214967434835 11.186900003859819 23.306176088930158 11 19 C9.74557459170876 15.236723775126336 8.7386527269432 13.549254591829595 5.5625 11.1875 C2.8331695749866412 9.825230593635524 2.8331695749866412 9.825230593635524 -1 9 C-0.6699999999999591 6.029999999999973 -0.34000000000003183 3.0600000000000023 0 0 Z " fill="#000000" transform="translate(704,332)"/>
<path d="M0 0 C2.6399999999999864 0 5.279999999999973 0 8 0 C8 15.509999999999991 8 31.019999999999982 8 47 C5.360000000000014 47 2.7200000000000273 47 0 47 C0 31.49000000000001 0 15.980000000000018 0 0 Z " fill="#000000" transform="translate(672,414)"/>
<path d="M0 0 C2.6399999999999864 0 5.279999999999973 0 8 0 C8 15.509999999999991 8 31.019999999999982 8 47 C5.360000000000014 47 2.7200000000000273 47 0 47 C0 31.49000000000001 0 15.980000000000018 0 0 Z " fill="#000000" transform="translate(694,414)"/>
<path d="M0 0 C4.628571671385316 4.509890346478073 7.032405457454161 8.858460875909941 7.375 15.3125 C7.283327840235984 20.287798125374934 5.598853713421136 25.401146286578864 2 29 C3.980000000000018 29.495000000000005 3.980000000000018 29.495000000000005 6 30 C6 32.639999999999986 6 35.27999999999997 6 38 C-17.75999999999999 38 -41.51999999999998 38 -66 38 C-66 35.360000000000014 -66 32.72000000000003 -66 30 C-57.75 30 -49.5 30 -41 30 C-42.64999999999998 27.690000000000055 -44.299999999999955 25.379999999999995 -46 23 C-47.803884482104536 17.58834655368628 -47.54604245531493 12.638127365944797 -45.75 7.25 C-42.60882757671823 1.416394071048046 -39.26504931980355 -2.5233830306191862 -33 -5 C-21.7823935457493 -8.207380144543833 -9.173413986062656 -7.912613011674921 0 0 Z M-35.5625 6.3125 C-38.46827063955129 9.516298397453966 -39.920006760581145 11.545207465335125 -40.0625 15.91796875 C-39.828861569186074 19.80950886324422 -39.25630352726603 21.670466893515027 -36.8125 24.8125 C-31.06159220416862 29.285428285646617 -26.59473866971689 30.48721906507467 -19.5 30.375 C-18.399785156250005 30.39240234374995 -18.399785156250005 30.39240234374995 -17.27734375 30.41015625 C-11.316167544393466 30.37816424889661 -7.120549552023249 29.005925251913936 -2.6875 24.8125 C-0.5071673464551623 21.178612244091937 0.3142543322928759 18.238404584257523 0 14 C-1.2927877834066521 9.534005839140491 -3.653308949074926 6.8680102243142755 -7.6875 4.625 C-16.192511075847165 0.984478653880899 -27.913610773444134 0.3986027199555906 -35.5625 6.3125 Z " fill="#000000" transform="translate(716,506)"/>
<path d="M0 0 C2.6399999999999864 0 5.279999999999973 0 8 0 C8.330000000000041 6.269999999999982 8.659999999999968 12.539999999999964 9 19 C15.269999999999982 19.33000000000004 21.539999999999964 19.659999999999968 28 20 C28 22.639999999999986 28 25.279999999999973 28 28 C21.399999999999977 28 14.799999999999955 28 8 28 C8 34.26999999999998 8 40.539999999999964 8 47 C5.360000000000014 47 2.7200000000000273 47 0 47 C0 40.73000000000002 0 34.460000000000036 0 28 C-6.269999999999982 28 -12.539999999999964 28 -19 28 C-19 25.360000000000014 -19 22.720000000000027 -19 20 C-12.730000000000018 20 -6.460000000000036 20 0 20 C0 13.399999999999977 0 6.7999999999999545 0 0 Z " fill="#000000" transform="translate(683,584)"/>
<path d="M0 0 C0 2.9700000000000273 0 5.940000000000055 0 9 C-1.9800000000000182 9.330000000000041 -3.9600000000000364 9.659999999999968 -6 10 C-5.662265625000032 10.507890624999959 -5.32453124999995 11.015781250000032 -4.9765625 11.5390625 C0.011003002466736689 19.2366346916682 2.088039850190853 25.74510681644915 1 35 C-0.4563233937545874 39.3761441881295 -2.494323938174034 42.96233610763693 -6 46 C-11.554981362413514 47.8516604541378 -17.010943947428018 47.884024912254176 -22.375 45.5 C-28.991259436753353 39.198800536425324 -29.986653757523413 31.157028350085398 -31.25 22.5 C-31.422734375000005 21.391406250000045 -31.59546875000001 20.282812499999977 -31.7734375 19.140625 C-32.19425681531766 16.428678301286027 -32.60276784045993 13.715484151710939 -33 11 C-34.460538357539804 11.430997027871854 -35.916801315210705 11.876500990459022 -37.37109375 12.328125 C-38.18247802734379 12.574658203124955 -38.99386230468747 12.821191406250023 -39.829833984375 13.0751953125 C-42.29115542813349 13.91006846743926 -42.29115542813349 13.91006846743926 -44.0625 16.75 C-45.55568937373937 21.926389828963238 -45.4228361562773 25.590546145742223 -43.875 30.75 C-41.702194879665626 34.51619554191302 -40.007132029344916 35.48619456669189 -36 37 C-36.33000000000004 39.97000000000003 -36.65999999999997 42.940000000000055 -37 46 C-42.49920252958884 44.81389749361813 -45.32028967995598 43.497423724498276 -49 39 C-53.54962269400028 31.038160285499544 -54.23327538031367 22.563533379974388 -52.5390625 13.546875 C-50.86154012512168 8.376158973904467 -48.45467276734712 5.827003871585703 -44 3 C-39.13953132884649 2.0799354738004467 -34.3601619590105 1.835178134975422 -29.421875 1.71875 C-27.99999993675351 1.680991964966779 -26.578124938621954 1.6432314777955526 -25.15625 1.60546875 C-22.94208410090107 1.5516933304363647 -20.727886463914956 1.4994833737202953 -18.513671875 1.44775390625 C-16.357959395075113 1.3959978136703057 -14.202439102433118 1.3388089584744876 -12.046875 1.28125 C-10.766513671875032 1.2509570312499818 -9.48615234374995 1.2206640624999636 -8.1669921875 1.189453125 C-5.2735439161124305 1.016363712527209 -2.8469983048681797 0 0 0 Z M-26 11 C-25.412341167338468 14.398903760183998 -24.80197731238968 17.793350772655003 -24.1875 21.1875 C-24.021855468750005 22.14720703124999 -23.85621093750001 23.106914062499982 -23.685546875 24.095703125 C-22.454297751742047 30.98457837215426 -22.454297751742047 30.98457837215426 -19 37 C-16.15916358701986 38.420418206490126 -14.145227223506481 38.3145227223506 -11 38 C-8.092066994627771 35.64221648213061 -6.218261720515329 33.67749722338897 -5.7265625 29.8984375 C-5.499569791242493 24.258541736257257 -6.057279528055005 20.279015914160368 -9.3828125 15.62890625 C-13.216552954203507 11.767385067867508 -17.47127271330021 11.025425817658174 -22.7578125 10.9375 C-23.827734374999977 10.958124999999995 -24.897656249999955 10.978749999999991 -26 11 Z " fill="#000000" transform="translate(722,670)"/>
</svg>
