<?xml version="1.0" encoding="UTF-8"?>
<!-- Generator: visioncortex VTracer 0.6.0 -->
<svg version="1.1" xmlns="http://www.w3.org/2000/svg" width="744" height="1052">
<path d="M0 0 C1.0299609374999932 -0.020624999999995453 2.0599218749999864 -0.041249999999990905 3.12109375 -0.0625 C14.131501743689455 -0.11789827921353435 24.674824315274634 1.9258545832949494 32.90625 9.6953125 C38.017595313944526 15.371283168391926 38.84797675535691 21.118069253581325 38.6875 28.5 C38.04976306844026 34.11208499772562 35.65214478048023 38.339067512202234 31.5625 42.1875 C28.03425467599064 44.470482268476644 25.534390455247205 45.000436572685146 21.375 45.25 C20.02060332320724 42.54120664641448 20.30998549297368 40.240667323211255 20.375 37.25 C21.206445312499994 36.903886718750016 21.206445312499994 36.903886718750016 22.0546875 36.55078125 C26.575907693220046 34.551138223837256 26.575907693220046 34.551138223837256 29.9375 31.0625 C30.75322660250663 25.818543269600355 30.36692279137634 21.190718504866766 27.9375 16.4375 C21.53055603143693 10.968157587812016 14.579755178648469 9.72066095621625 6.375 10.25 C7.158749999999998 11.136874999999975 7.9424999999999955 12.023750000000007 8.75 12.9375 C12.70557059803869 17.75590044520294 13.783193749816633 21.784490840692172 13.62890625 27.9765625 C13.003260125879251 33.57850164212721 10.307873251603553 38.31712674839645 6.375 42.25 C-1.0660106396724416 46.80666012367567 -8.285909436153815 48.421120121117326 -16.9296875 46.82421875 C-23.551952291945412 44.956694249849306 -29.168830070960666 41.29691085623597 -32.7890625 35.33203125 C-35.4634949332189 29.07085999279127 -35.58172102922461 22.495163087673802 -33.4375 16.0625 C-30.275090490393637 8.751241317240328 -26.14243080653523 5.618572061280275 -19.125 2.23046875 C-12.901835439831558 -0.2101786009410489 -6.588229833215394 0.03225571521770121 0 0 Z M-23.625 14.25 C-24.5221875 15.11624999999998 -24.5221875 15.11624999999998 -25.4375 16 C-27.198934530636052 19.337454900152466 -27.848219539040002 22.51804833167489 -27.625 26.25 C-25.883511340424008 31.63773054056327 -22.572706719156713 34.569992193790085 -17.625 37.25 C-12.387605346259335 39.344957861496255 -6.489655743942677 38.91609487663243 -1.375 36.75 C2.3396882580024396 34.669188431414796 4.184076218038172 32.309562476319 5.8125 28.3984375 C6.76391031299363 24.76457866564931 6.6461765305975575 21.785916326489712 5.375 18.25 C3.146394851321304 14.519149899248987 0.4655820629334926 11.804279885743313 -3.625 10.25 C-11.068105601315352 9.478786648538403 -18.026387172464695 8.802701032668324 -23.625 14.25 Z " fill="#000000" transform="translate(202.625,247.75)"/>
<path d="M0 0 C2.6399999999999864 0 5.280000000000001 0 8 0 C8 15.509999999999991 8 31.019999999999982 8 47 C5.360000000000014 47 2.719999999999999 47 0 47 C0 31.49000000000001 0 15.980000000000018 0 0 Z " fill="#000000" transform="translate(190,332)"/>
<path d="M0 0 C2.6399999999999864 0 5.280000000000001 0 8 0 C8 15.509999999999991 8 31.019999999999982 8 47 C5.360000000000014 47 2.719999999999999 47 0 47 C0 31.49000000000001 0 15.980000000000018 0 0 Z " fill="#000000" transform="translate(212,332)"/>
<path d="M0 0 C2.6399999999999864 0 5.280000000000001 0 8 0 C8 3.3000000000000114 8 6.600000000000023 8 10 C13.610000000000014 10 19.22 10 25 10 C25 12.970000000000027 25 15.939999999999998 25 19 C19.389999999999986 19 13.780000000000001 19 8 19 C8 29.230000000000018 8 39.45999999999998 8 50 C-0.9979985443959265 50 -0.9979985443959265 50 -4.12890625 47.71875 C-4.842885742187491 47.21400146484376 -5.55686523437501 46.70925292968752 -6.29248046875 46.189208984375 C-7.041586914062492 45.631770019531245 -7.790693359374984 45.07433105468749 -8.5625 44.5 C-10.222482285056515 43.31355864653284 -11.88264724757272 42.12737285176246 -13.54296875 40.94140625 C-14.418725585937494 40.30605957031253 -15.294482421874989 39.670712890625 -16.19677734375 39.01611328125 C-21.203808840058798 35.414992736352076 -26.298586397093032 31.939753742718608 -31.375 28.4375 C-33.30120161065577 27.10535169239222 -35.22578444602823 25.77085849282696 -37.1484375 24.43359375 C-37.96489746093749 23.866970214843775 -38.781357421874986 23.300346679687493 -39.62255859375 22.716552734375 C-40.40711425781251 22.150090332031255 -41.19166992187499 21.58362792968751 -42 21 C-42.925063476562514 20.413557128906234 -43.850126953125 19.827114257812525 -44.80322265625 19.222900390625 C-47 17 -47 17 -47 10 C-31.49000000000001 10 -15.97999999999999 10 0 10 C0 6.699999999999989 0 3.3999999999999773 0 0 Z M-31 19 C-27.349437036475933 22.650562963524067 -24.691284983224335 25.055602510784354 -20.5 27.75 C-15.294634509694845 31.13833728809925 -10.17806405129167 34.62758470128699 -5.1015625 38.2060546875 C-2.76133483431056 40.16080832888787 -2.76133483431056 40.16080832888787 0 41 C0 33.74000000000001 0 26.480000000000018 0 19 C-10.230000000000018 19 -20.460000000000008 19 -31 19 Z " fill="#000000" transform="translate(215,418)"/>
<path d="M0 0 C2.6399999999999864 0 5.280000000000001 0 8 0 C8.329999999999984 6.269999999999982 8.659999999999997 12.539999999999964 9 19 C15.27000000000001 19.33000000000004 21.539999999999992 19.659999999999968 28 20 C28 22.639999999999986 28 25.279999999999973 28 28 C21.400000000000006 28 14.800000000000011 28 8 28 C8 34.26999999999998 8 40.539999999999964 8 47 C5.360000000000014 47 2.719999999999999 47 0 47 C0 40.73000000000002 0 34.460000000000036 0 28 C-6.27000000000001 28 -12.539999999999992 28 -19 28 C-19 25.360000000000014 -19 22.720000000000027 -19 20 C-12.72999999999999 20 -6.460000000000008 20 0 20 C0 13.399999999999977 0 6.800000000000011 0 0 Z " fill="#000000" transform="translate(201,502)"/>
<path d="M0 0 C9.831004507248451 4.729590670658126 16.190144998248286 12.089037993282318 22.984375 20.35546875 C23.704276123046867 21.223652343750018 23.704276123046867 21.223652343750018 24.438720703125 22.109375 C25.39063199608023 23.258756403534676 26.336085935016285 24.41352449480337 27.274169921875 25.57421875 C30.15192055529215 29.046089008478248 32.25755506210953 30.647501787265696 36.26953125 33.0546875 C36.26953125 21.834687499999973 36.26953125 10.614687499999945 36.26953125 -0.9453125 C38.909531249999986 -0.9453125 41.54953125 -0.9453125 44.26953125 -0.9453125 C44.26953125 14.564687499999991 44.26953125 30.074687499999982 44.26953125 46.0546875 C30.014370868424066 44.01823601691774 21.124196163065676 33.05812397040427 12.51953125 22.1796875 C8.010650458416933 16.508808391892785 2.982415997493405 11.942789077409998 -3.73046875 9.0546875 C-7.944837933517306 8.720213755276404 -10.633598326512498 8.615939330604988 -14.54296875 10.1796875 C-17.423520250391704 12.648731643192946 -18.52463702313142 14.437192319394171 -19.73046875 18.0546875 C-19.78764291744588 22.759304706975968 -19.221271798904723 26.998483923832282 -16.73046875 31.0546875 C-13.140255595554777 33.208815392667134 -9.867153933209892 34.44635144364565 -5.73046875 35.0546875 C-6.060468749999984 38.02468750000003 -6.390468749999997 40.994687500000055 -6.73046875 44.0546875 C-14.21511401505012 43.53850506792753 -18.17179889009728 41.72966053535288 -23.48046875 36.1796875 C-28.22127906998648 29.595228722241018 -28.54463036461874 22.972409202167228 -27.73046875 15.0546875 C-25.81768379901294 7.816535355923975 -22.265758764419417 3.730318847418971 -15.86328125 -0.046875 C-10.848826431241775 -2.1591911324439934 -5.06692069058667 -1.7542128857253374 0 0 Z " fill="#000000" transform="translate(195.73046875,589.9453125)"/>
<path d="M0 0 C2.6399999999999864 0 5.280000000000001 0 8 0 C8.329999999999984 6.269999999999982 8.659999999999997 12.539999999999964 9 19 C15.27000000000001 19.33000000000004 21.539999999999992 19.659999999999968 28 20 C28 22.639999999999986 28 25.279999999999973 28 28 C21.400000000000006 28 14.800000000000011 28 8 28 C8 34.26999999999998 8 40.539999999999964 8 47 C5.360000000000014 47 2.719999999999999 47 0 47 C0 40.73000000000002 0 34.460000000000036 0 28 C-6.27000000000001 28 -12.539999999999992 28 -19 28 C-19 25.360000000000014 -19 22.720000000000027 -19 20 C-12.72999999999999 20 -6.460000000000008 20 0 20 C0 13.399999999999977 0 6.7999999999999545 0 0 Z " fill="#000000" transform="translate(201,672)"/>
<path d="M0 0 C5.635064589247349 4.108143861838357 9.339853463269094 9.495162111369496 10.81640625 16.32421875 C11.721491099691065 24.20599931605966 10.304321044891964 30.414638358026878 6.06640625 37.07421875 C1.6268926688753993 41.51373233112463 -2.8874956738075355 43.7099652791519 -9.18359375 44.32421875 C-9.678593750000005 39.86921874999996 -9.678593750000005 39.86921874999996 -10.18359375 35.32421875 C-9.496523437500002 35.03289062500005 -8.809453125000005 34.741562499999986 -8.1015625 34.44140625 C-2.4132822041232203 31.862347076693595 -2.4132822041232203 31.862347076693595 2.00390625 27.57421875 C3.236920312803079 22.64216249878757 3.3142360666752495 18.037595071746296 0.80078125 13.484375 C-1.735580548169196 10.201552292875931 -4.129710985526742 8.153422042733155 -8.18359375 7.32421875 C-12.737375446677362 7.266050005699412 -16.176537861524224 7.724270561120761 -20.12109375 10.07421875 C-24.688811664209936 15.057183747319982 -24.435929928447308 19.889646199593926 -24.18359375 26.32421875 C-26.823593749999986 26.32421875 -29.46359375 26.32421875 -32.18359375 26.32421875 C-32.34794921874999 25.43669921875005 -32.34794921874999 25.43669921875005 -32.515625 24.53125 C-33.75022614631058 17.942667450889758 -33.75022614631058 17.942667450889758 -37.18359375 12.32421875 C-41.37588504071675 10.389315077361516 -43.452588622775465 10.129284049406806 -47.93359375 11.32421875 C-51.78558222592943 13.69467319672583 -52.88122213431936 15.010112773057926 -54.18359375 19.32421875 C-54.46756018575465 23.849933819839634 -53.75974872479759 26.566986497408834 -50.99609375 30.19921875 C-48.0893339458288 32.395437268707155 -45.69481571437731 33.42599917771747 -42.18359375 34.32421875 C-42.76953125 40.4765625 -42.76953125 40.4765625 -43.18359375 42.32421875 C-45.18359375 43.32421875 -45.18359375 43.32421875 -48.87109375 42.38671875 C-54.9679488349972 39.965745328270714 -58.788617311610864 35.17482277627346 -61.62109375 29.38671875 C-63.116583870297916 21.244605872822376 -62.28516081499876 14.632930155543022 -58.18359375 7.32421875 C-54.95946671597824 3.1299136723060883 -50.65480628821567 1.3179515481632507 -45.55859375 0.4140625 C-41.372340268676396 0.25570093738417654 -37.84034417984907 1.3196145986971715 -34.18359375 3.32421875 C-31.74609375 5.94921875 -31.74609375 5.94921875 -30.18359375 8.32421875 C-29.523593750000003 8.654218750000041 -28.863593750000007 8.984218749999968 -28.18359375 9.32421875 C-28.14234375000001 8.602343750000045 -28.10109374999999 7.880468749999977 -28.05859375 7.13671875 C-26.610219507174236 2.48123011234577 -23.016666462318625 0.39351116551915766 -18.93359375 -1.98828125 C-12.268553142535922 -3.6545414018660267 -6.021494202163581 -3.4669209042759803 0 0 Z " fill="#000000" transform="translate(230.18359375,760.67578125)"/>
</svg>
