<?xml version="1.0" encoding="UTF-8"?>
<!-- Generator: visioncortex VTracer 0.6.0 -->
<svg version="1.1" xmlns="http://www.w3.org/2000/svg" width="1052" height="744">
<path d="M0 0 C1.9800000000000182 0 3.9599999999999795 0 6 0 C6 23.75999999999999 6 47.51999999999998 6 72 C3.0299999999999727 72 0.060000000000002274 72 -3 72 C-3.329999999999984 54.18000000000001 -3.660000000000025 36.360000000000014 -4 18 C-9.444999999999993 21.464999999999975 -9.444999999999993 21.464999999999975 -15 25 C-16.649999999999977 25.660000000000025 -18.30000000000001 26.319999999999993 -20 27 C-20.906949868174706 23.721027399676075 -21.062574479140665 21.25691433373811 -20 18 C-16.94795779923902 15.321133264834259 -13.728159164225929 13.280019609880753 -10.2890625 11.14453125 C-5.7887947303989336 8.210271148443042 -2.4307112567686318 4.8614225135372635 0 0 Z " fill="#000000" transform="translate(359,355)"/>
<path d="M0 0 C1.9800000000000182 0 3.9600000000000364 0 6 0 C6 23.75999999999999 6 47.51999999999998 6 72 C3.0299999999999727 72 0.05999999999994543 72 -3 72 C-3.330000000000041 54.18000000000001 -3.659999999999968 36.360000000000014 -4 18 C-9.44500000000005 21.464999999999975 -9.44500000000005 21.464999999999975 -15 25 C-16.649999999999977 25.660000000000025 -18.30000000000001 26.319999999999993 -20 27 C-20.906949868174706 23.721027399676075 -21.062574479140665 21.25691433373811 -20 18 C-16.94795779923902 15.321133264834259 -13.728159164225985 13.280019609880753 -10.2890625 11.14453125 C-5.78879473039899 8.210271148443042 -2.4307112567686318 4.8614225135372635 0 0 Z " fill="#000000" transform="translate(529,355)"/>
<path d="M0 0 C4.185904912171168 2.796321724114364 6.957735315170112 6.647833074273308 8.90625 11.2734375 C10.376117682088648 20.959091910394363 7.17765351843309 27.764205623240798 1.59375 35.4609375 C-2.7567597551116023 40.01379654604699 -7.534403445371481 43.9937124797093 -12.39453125 47.98828125 C-13.262714843750018 48.708182373046895 -13.262714843750018 48.708182373046895 -14.1484375 49.442626953125 C-15.297818903534676 50.39453824608023 -16.45258699480337 51.339992185016285 -17.61328125 52.278076171875 C-21.085151508478248 55.15582680529212 -22.686564287265696 57.26146131210953 -25.09375 61.2734375 C-13.873749999999973 61.2734375 -2.6537499999999454 61.2734375 8.90625 61.2734375 C8.90625 63.913437499999986 8.90625 66.55343749999997 8.90625 69.2734375 C-6.603749999999991 69.2734375 -22.113749999999982 69.2734375 -38.09375 69.2734375 C-36.05729851691774 55.018277118424066 -25.097186470404267 46.128102413065676 -14.21875 37.5234375 C-8.547870891892785 33.01455670841693 -3.981851577409998 27.986322247493433 -1.09375 21.2734375 C-0.7592762552764043 17.059068316482694 -0.6550018306049878 14.370307923487474 -2.21875 10.4609375 C-4.687794143192946 7.580385999608268 -6.476254819394171 6.47926922686861 -10.09375 5.2734375 C-14.798367206975968 5.216263332554092 -19.037546423832282 5.782634451095305 -23.09375 8.2734375 C-25.247877892667134 11.863650654445223 -26.485413943645653 15.13675231679008 -27.09375 19.2734375 C-30.063750000000027 18.943437500000016 -33.033750000000055 18.613437499999975 -36.09375 18.2734375 C-35.57756756792753 10.78879223494988 -33.76872303535288 6.832107359902693 -28.21875 1.5234375 C-19.94813175528327 -4.43140763619607 -9.031285323980569 -4.6138088068161665 0 0 Z " fill="#000000" transform="translate(709.09375,357.7265625)"/>
<path d="M0 0 C2.6399999999999864 0 5.279999999999973 0 8 0 C8 6.269999999999982 8 12.54000000000002 8 19 C14.600000000000023 19 21.19999999999999 19 28 19 C28 21.639999999999986 28 24.279999999999973 28 27 C21.730000000000018 27.329999999999984 15.45999999999998 27.660000000000025 9 28 C8.670000000000016 34.26999999999998 8.339999999999975 40.54000000000002 8 47 C5.360000000000014 47 2.7200000000000273 47 0 47 C0 40.39999999999998 0 33.80000000000001 0 27 C-6.269999999999982 27 -12.54000000000002 27 -19 27 C-19 24.360000000000014 -19 21.720000000000027 -19 19 C-12.730000000000018 19 -6.4599999999999795 19 0 19 C0 12.730000000000018 0 6.4599999999999795 0 0 Z " fill="#000000" transform="translate(437,369)"/>
<path d="M0 0 C15.509999999999991 0 31.019999999999982 0 47 0 C47 2.6399999999999864 47 5.279999999999973 47 8 C31.49000000000001 8 15.980000000000018 8 0 8 C0 5.360000000000014 0 2.7200000000000273 0 0 Z " fill="#000000" transform="translate(588,377)"/>
<path d="M0 0 C15.509999999999991 0 31.019999999999982 0 47 0 C47 2.6399999999999864 47 5.279999999999973 47 8 C31.49000000000001 8 15.980000000000018 8 0 8 C0 5.360000000000014 0 2.7200000000000273 0 0 Z " fill="#000000" transform="translate(588,399)"/>
</svg>
