<?xml version="1.0" encoding="UTF-8"?>
<!-- Generator: visioncortex VTracer 0.6.0 -->
<svg version="1.1" xmlns="http://www.w3.org/2000/svg" width="744" height="1052">
<path d="M0 0 C1.0299609374999932 -0.020624999999995453 2.0599218749999864 -0.041249999999990905 3.12109375 -0.0625 C14.131501743689455 -0.11789827921353435 24.674824315274634 1.9258545832949494 32.90625 9.6953125 C38.017595313944526 15.371283168391926 38.84797675535697 21.118069253581325 38.6875 28.5 C38.04976306844026 34.11208499772562 35.652144780480285 38.339067512202234 31.5625 42.1875 C28.034254675990667 44.470482268476644 25.534390455247205 45.000436572685146 21.375 45.25 C20.02060332320724 42.54120664641448 20.30998549297368 40.240667323211255 20.375 37.25 C21.206445312500023 36.903886718750016 21.206445312500023 36.903886718750016 22.0546875 36.55078125 C26.575907693220074 34.551138223837256 26.575907693220074 34.551138223837256 29.9375 31.0625 C30.75322660250663 25.818543269600355 30.36692279137634 21.190718504866766 27.9375 16.4375 C21.53055603143696 10.968157587812016 14.579755178648497 9.72066095621625 6.375 10.25 C7.158749999999998 11.136874999999975 7.9424999999999955 12.023750000000007 8.75 12.9375 C12.705570598038719 17.75590044520294 13.783193749816633 21.784490840692172 13.62890625 27.9765625 C13.003260125879251 33.57850164212721 10.307873251603553 38.31712674839645 6.375 42.25 C-1.0660106396724132 46.80666012367567 -8.285909436153815 48.421120121117326 -16.9296875 46.82421875 C-23.551952291945383 44.956694249849306 -29.168830070960666 41.29691085623597 -32.7890625 35.33203125 C-35.4634949332189 29.07085999279127 -35.58172102922458 22.495163087673802 -33.4375 16.0625 C-30.275090490393666 8.751241317240328 -26.14243080653523 5.618572061280275 -19.125 2.23046875 C-12.90183543983153 -0.2101786009410489 -6.588229833215394 0.03225571521770121 0 0 Z M-23.625 14.25 C-24.522187499999973 15.11624999999998 -24.522187499999973 15.11624999999998 -25.4375 16 C-27.198934530636052 19.337454900152466 -27.84821953904003 22.51804833167489 -27.625 26.25 C-25.88351134042398 31.63773054056327 -22.572706719156713 34.569992193790085 -17.625 37.25 C-12.387605346259363 39.344957861496255 -6.489655743942706 38.91609487663243 -1.375 36.75 C2.339688258002411 34.669188431414796 4.184076218038172 32.309562476319 5.8125 28.3984375 C6.76391031299363 24.76457866564931 6.646176530597529 21.785916326489712 5.375 18.25 C3.146394851321304 14.519149899248987 0.4655820629334926 11.804279885743313 -3.625 10.25 C-11.068105601315324 9.478786648538403 -18.026387172464695 8.802701032668324 -23.625 14.25 Z " fill="#000000" transform="translate(481.625,247.75)"/>
<path d="M0 0 C2.6399999999999864 0 5.279999999999973 0 8 0 C8 15.509999999999991 8 31.019999999999982 8 47 C5.360000000000014 47 2.7200000000000273 47 0 47 C0 31.49000000000001 0 15.980000000000018 0 0 Z " fill="#000000" transform="translate(469,332)"/>
<path d="M0 0 C2.6399999999999864 0 5.279999999999973 0 8 0 C8 15.509999999999991 8 31.019999999999982 8 47 C5.360000000000014 47 2.7200000000000273 47 0 47 C0 31.49000000000001 0 15.980000000000018 0 0 Z " fill="#000000" transform="translate(491,332)"/>
<path d="M0 0 C9.831004507248451 4.729590670658126 16.190144998248286 12.089037993282375 22.984375 20.35546875 C23.704276123046895 21.223652343750018 23.704276123046895 21.223652343750018 24.438720703125 22.109375 C25.39063199608023 23.258756403534733 26.336085935016285 24.41352449480337 27.274169921875 25.57421875 C30.151920555292122 29.046089008478248 32.25755506210953 30.647501787265696 36.26953125 33.0546875 C36.26953125 21.834687499999973 36.26953125 10.614687500000002 36.26953125 -0.9453125 C38.909531249999986 -0.9453125 41.54953124999997 -0.9453125 44.26953125 -0.9453125 C44.26953125 14.564687499999991 44.26953125 30.074687499999982 44.26953125 46.0546875 C30.014370868424066 44.01823601691774 21.124196163065676 33.05812397040427 12.51953125 22.1796875 C8.010650458416933 16.508808391892842 2.9824159974934332 11.942789077409941 -3.73046875 9.0546875 C-7.944837933517306 8.720213755276404 -10.633598326512526 8.615939330604988 -14.54296875 10.1796875 C-17.423520250391732 12.648731643192889 -18.52463702313139 14.437192319394228 -19.73046875 18.0546875 C-19.787642917445908 22.759304706976025 -19.221271798904695 26.998483923832282 -16.73046875 31.0546875 C-13.140255595554777 33.208815392667134 -9.86715393320992 34.4463514436456 -5.73046875 35.0546875 C-6.060468749999984 38.02468750000003 -6.390468750000025 40.9946875 -6.73046875 44.0546875 C-14.21511401505012 43.53850506792759 -18.171798890097307 41.72966053535282 -23.48046875 36.1796875 C-28.221279069986508 29.595228722241018 -28.54463036461874 22.97240920216717 -27.73046875 15.0546875 C-25.81768379901291 7.816535355923975 -22.265758764419388 3.730318847418971 -15.86328125 -0.046875 C-10.848826431241775 -2.1591911324439366 -5.066920690586699 -1.7542128857252806 0 0 Z " fill="#000000" transform="translate(474.73046875,419.9453125)"/>
<path d="M0 0 C2.6399999999999864 0 5.279999999999973 0 8 0 C8.329999999999984 6.269999999999982 8.660000000000025 12.539999999999964 9 19 C15.269999999999982 19.33000000000004 21.54000000000002 19.659999999999968 28 20 C28 22.639999999999986 28 25.279999999999973 28 28 C21.399999999999977 28 14.800000000000011 28 8 28 C8 34.26999999999998 8 40.539999999999964 8 47 C5.360000000000014 47 2.7200000000000273 47 0 47 C0 40.73000000000002 0 34.460000000000036 0 28 C-6.269999999999982 28 -12.54000000000002 28 -19 28 C-19 25.360000000000014 -19 22.720000000000027 -19 20 C-12.730000000000018 20 -6.4599999999999795 20 0 20 C0 13.399999999999977 0 6.800000000000011 0 0 Z " fill="#000000" transform="translate(480,502)"/>
<path d="M0 0 C4.991918744569489 4.227605826740728 7.541492961574363 10.055583285872444 8.28515625 16.453125 C8.538778748477398 23.64277147857638 7.3234117534722145 29.319140284455216 2.5625 34.8125 C1.716874999999959 35.534374999999955 0.8712500000000318 36.25625000000002 0 37 C-0.5774999999999864 37.55687499999999 -1.1549999999999727 38.11374999999998 -1.75 38.6875 C-5.2893951798456555 40.75214718824327 -8.988096569242146 41.23301846176685 -13 42 C-13.495000000000005 37.54499999999996 -13.495000000000005 37.54499999999996 -14 33 C-13.312929687500002 32.68546875000004 -12.625859375000005 32.37093749999997 -11.91796875 32.046875 C-11.016914062500007 31.61890625000001 -10.115859375000014 31.190937500000018 -9.1875 30.75 C-7.847519531249986 30.123515624999982 -7.847519531249986 30.123515624999982 -6.48046875 29.484375 C-3.8296639330197877 27.898066605586678 -2.5691204892718815 26.640107489885963 -1 24 C0.02290610028910578 19.46998727014818 0.3928162149708214 17.13480239880448 -1.125 12.75 C-3.8169007756473547 8.801878862383887 -6.45876589231824 6.51374470256053 -11 5 C-18.338673013629943 4.345527699076911 -24.18619920063111 4.175782315417337 -30 9 C-32.96417798025743 13.724158656035343 -33.401349003727034 17.492757716907477 -32.58984375 22.86328125 C-31.715419510617266 26.03089753438644 -29.916628240463922 28.364636169362143 -28 31 C-26.923930863636542 34.4765310559435 -27.04621979711135 36.54891743382268 -28 40 C-35.59880033418415 39.28558287456394 -43.01102344343144 37.95618988599949 -50.5 36.5 C-51.69109374999999 36.2744140625 -52.882187499999986 36.048828125 -54.109375 35.81640625 C-55.80320312499998 35.489628906250005 -55.80320312499998 35.489628906250005 -57.53125 35.15625 C-58.557988281250005 34.958378906250005 -59.58472656250001 34.76050781250001 -60.642578125 34.556640625 C-63 34 -63 34 -64 33 C-64.088515291448 30.406406782841145 -64.11525944882135 27.839603086591865 -64.09765625 25.24609375 C-64.09553382873537 24.08292381286617 -64.09553382873537 24.08292381286617 -64.09336853027344 22.896255493164063 C-64.08775345319953 20.409965056533565 -64.07519846391307 17.92376339671864 -64.0625 15.4375 C-64.0574869392085 13.755860671909886 -64.05292369687749 12.07421993788671 -64.048828125 10.392578125 C-64.03777913126874 6.261684339285466 -64.02050444601849 2.1308572401848096 -64 -2 C-61.360000000000014 -2 -58.72000000000003 -2 -56 -2 C-55.670000000000016 7.240000000000009 -55.339999999999975 16.480000000000018 -55 26 C-50.154185346893996 26.94546309489283 -50.154185346893996 26.94546309489283 -45.30712890625 27.884521484375 C-40.22222222222223 28.888888888888914 -40.22222222222223 28.888888888888914 -38 30 C-38.21656250000001 29.454726562500014 -38.43312500000002 28.909453125000027 -38.65625 28.34765625 C-41.2419264313595 21.34478258173465 -42.11271127662121 15.585403002446128 -39.875 8.375 C-35.440433243570396 0.39277983842669073 -31.30973460069515 -2.953599588963698 -22.6875 -5.75 C-14.195080832109 -6.5399924807340994 -7.128848951950431 -4.693370306444194 0 0 Z " fill="#000000" transform="translate(512,593)"/>
<path d="M0 0 C2.6399999999999864 0 5.279999999999973 0 8 0 C8.329999999999984 6.269999999999982 8.660000000000025 12.539999999999964 9 19 C15.269999999999982 19.33000000000004 21.54000000000002 19.659999999999968 28 20 C28 22.639999999999986 28 25.279999999999973 28 28 C21.399999999999977 28 14.800000000000011 28 8 28 C8 34.26999999999998 8 40.539999999999964 8 47 C5.360000000000014 47 2.7200000000000273 47 0 47 C0 40.73000000000002 0 34.460000000000036 0 28 C-6.269999999999982 28 -12.54000000000002 28 -19 28 C-19 25.360000000000014 -19 22.720000000000027 -19 20 C-12.730000000000018 20 -6.4599999999999795 20 0 20 C0 13.399999999999977 0 6.7999999999999545 0 0 Z " fill="#000000" transform="translate(480,672)"/>
<path d="M0 0 C9.831004507248451 4.729590670658126 16.190144998248286 12.089037993282318 22.984375 20.35546875 C23.704276123046895 21.223652343750018 23.704276123046895 21.223652343750018 24.438720703125 22.109375 C25.39063199608023 23.258756403534676 26.336085935016285 24.41352449480337 27.274169921875 25.57421875 C30.151920555292122 29.046089008478248 32.25755506210953 30.647501787265696 36.26953125 33.0546875 C36.26953125 21.834687499999973 36.26953125 10.614687499999945 36.26953125 -0.9453125 C38.909531249999986 -0.9453125 41.54953124999997 -0.9453125 44.26953125 -0.9453125 C44.26953125 14.564687499999991 44.26953125 30.074687499999982 44.26953125 46.0546875 C30.014370868424066 44.01823601691774 21.124196163065676 33.05812397040427 12.51953125 22.1796875 C8.010650458416933 16.508808391892785 2.9824159974934332 11.942789077409998 -3.73046875 9.0546875 C-7.944837933517306 8.720213755276404 -10.633598326512526 8.615939330604988 -14.54296875 10.1796875 C-17.423520250391732 12.648731643192946 -18.52463702313139 14.437192319394171 -19.73046875 18.0546875 C-19.787642917445908 22.759304706975968 -19.221271798904695 26.998483923832282 -16.73046875 31.0546875 C-13.140255595554777 33.208815392667134 -9.86715393320992 34.44635144364565 -5.73046875 35.0546875 C-6.060468749999984 38.02468750000003 -6.390468750000025 40.994687500000055 -6.73046875 44.0546875 C-14.21511401505012 43.53850506792753 -18.171798890097307 41.72966053535288 -23.48046875 36.1796875 C-28.221279069986508 29.595228722241018 -28.54463036461874 22.972409202167228 -27.73046875 15.0546875 C-25.81768379901291 7.816535355923975 -22.265758764419388 3.730318847418971 -15.86328125 -0.046875 C-10.848826431241775 -2.1591911324439934 -5.066920690586699 -1.7542128857253374 0 0 Z " fill="#000000" transform="translate(474.73046875,759.9453125)"/>
</svg>
