<?xml version="1.0" encoding="UTF-8"?>
<!-- Generator: visioncortex VTracer 0.6.0 -->
<svg version="1.1" xmlns="http://www.w3.org/2000/svg" width="744" height="1052">
<path d="M0 0 C1.0299609374999932 -0.020624999999995453 2.0599218749999864 -0.041249999999990905 3.12109375 -0.0625 C14.131501743689455 -0.11789827921353435 24.674824315274634 1.9258545832949494 32.90625 9.6953125 C38.017595313944526 15.371283168391926 38.84797675535691 21.118069253581325 38.6875 28.5 C38.04976306844026 34.11208499772562 35.65214478048023 38.339067512202234 31.5625 42.1875 C28.034254675990667 44.470482268476644 25.534390455247205 45.000436572685146 21.375 45.25 C20.02060332320724 42.54120664641448 20.30998549297368 40.240667323211255 20.375 37.25 C21.206445312500023 36.903886718750016 21.206445312500023 36.903886718750016 22.0546875 36.55078125 C26.575907693220074 34.551138223837256 26.575907693220074 34.551138223837256 29.9375 31.0625 C30.75322660250663 25.818543269600355 30.36692279137634 21.190718504866766 27.9375 16.4375 C21.53055603143696 10.968157587812016 14.579755178648497 9.72066095621625 6.375 10.25 C7.158749999999998 11.136874999999975 7.9424999999999955 12.023750000000007 8.75 12.9375 C12.705570598038719 17.75590044520294 13.783193749816633 21.784490840692172 13.62890625 27.9765625 C13.003260125879251 33.57850164212721 10.307873251603553 38.31712674839645 6.375 42.25 C-1.0660106396724132 46.80666012367567 -8.285909436153815 48.421120121117326 -16.9296875 46.82421875 C-23.551952291945383 44.956694249849306 -29.168830070960666 41.29691085623597 -32.7890625 35.33203125 C-35.4634949332189 29.07085999279127 -35.58172102922458 22.495163087673802 -33.4375 16.0625 C-30.275090490393666 8.751241317240328 -26.14243080653523 5.618572061280275 -19.125 2.23046875 C-12.90183543983153 -0.2101786009410489 -6.588229833215394 0.03225571521770121 0 0 Z M-23.625 14.25 C-24.522187499999973 15.11624999999998 -24.522187499999973 15.11624999999998 -25.4375 16 C-27.198934530636052 19.337454900152466 -27.84821953904003 22.51804833167489 -27.625 26.25 C-25.88351134042398 31.63773054056327 -22.572706719156713 34.569992193790085 -17.625 37.25 C-12.387605346259363 39.344957861496255 -6.489655743942706 38.91609487663243 -1.375 36.75 C2.339688258002411 34.669188431414796 4.184076218038172 32.309562476319 5.8125 28.3984375 C6.76391031299363 24.76457866564931 6.646176530597529 21.785916326489712 5.375 18.25 C3.146394851321304 14.519149899248987 0.4655820629334926 11.804279885743313 -3.625 10.25 C-11.068105601315324 9.478786648538403 -18.026387172464695 8.802701032668324 -23.625 14.25 Z " fill="#000000" transform="translate(295.625,247.75)"/>
<path d="M0 0 C2.6399999999999864 0 5.279999999999973 0 8 0 C8 15.509999999999991 8 31.019999999999982 8 47 C5.360000000000014 47 2.7200000000000273 47 0 47 C0 31.49000000000001 0 15.980000000000018 0 0 Z " fill="#000000" transform="translate(283,332)"/>
<path d="M0 0 C2.6399999999999864 0 5.279999999999973 0 8 0 C8 15.509999999999991 8 31.019999999999982 8 47 C5.360000000000014 47 2.7200000000000273 47 0 47 C0 31.49000000000001 0 15.980000000000018 0 0 Z " fill="#000000" transform="translate(305,332)"/>
<path d="M0 0 C23.75999999999999 0 47.51999999999998 0 72 0 C72 2.9700000000000273 72 5.939999999999998 72 9 C54.18000000000001 9.329999999999984 36.360000000000014 9.660000000000025 18 10 C21.464999999999975 15.444999999999993 21.464999999999975 15.444999999999993 25 21 C25.660000000000025 22.649999999999977 26.319999999999993 24.30000000000001 27 26 C23.721027399676075 26.906949868174706 21.25691433373811 27.062574479140665 18 26 C15.321133264834259 22.94795779923902 13.280019609880753 19.72815916422593 11.14453125 16.2890625 C8.210271148443042 11.78879473039899 4.8614225135372635 8.430711256768632 0 6 C0 4.019999999999982 0 2.0400000000000205 0 0 Z " fill="#000000" transform="translate(261,432)"/>
<path d="M0 0 C2.6399999999999864 0 5.279999999999973 0 8 0 C8.329999999999984 6.269999999999982 8.660000000000025 12.539999999999964 9 19 C15.269999999999982 19.33000000000004 21.54000000000002 19.659999999999968 28 20 C28 22.639999999999986 28 25.279999999999973 28 28 C21.399999999999977 28 14.800000000000011 28 8 28 C8 34.26999999999998 8 40.539999999999964 8 47 C5.360000000000014 47 2.7200000000000273 47 0 47 C0 40.73000000000002 0 34.460000000000036 0 28 C-6.269999999999982 28 -12.54000000000002 28 -19 28 C-19 25.360000000000014 -19 22.720000000000027 -19 20 C-12.730000000000018 20 -6.4599999999999795 20 0 20 C0 13.399999999999977 0 6.800000000000011 0 0 Z " fill="#000000" transform="translate(294,502)"/>
<path d="M0 0 C23.75999999999999 0 47.51999999999998 0 72 0 C72 2.9700000000000273 72 5.940000000000055 72 9 C54.18000000000001 9.330000000000041 36.360000000000014 9.659999999999968 18 10 C21.464999999999975 15.44500000000005 21.464999999999975 15.44500000000005 25 21 C25.660000000000025 22.649999999999977 26.319999999999993 24.299999999999955 27 26 C23.721027399676075 26.906949868174706 21.25691433373811 27.062574479140608 18 26 C15.321133264834259 22.94795779923902 13.280019609880753 19.728159164225985 11.14453125 16.2890625 C8.210271148443042 11.78879473039899 4.8614225135372635 8.430711256768632 0 6 C0 4.019999999999982 0 2.0399999999999636 0 0 Z " fill="#000000" transform="translate(261,602)"/>
<path d="M0 0 C2.6399999999999864 0 5.279999999999973 0 8 0 C8.329999999999984 6.269999999999982 8.660000000000025 12.539999999999964 9 19 C15.269999999999982 19.33000000000004 21.54000000000002 19.659999999999968 28 20 C28 22.639999999999986 28 25.279999999999973 28 28 C21.399999999999977 28 14.800000000000011 28 8 28 C8 34.26999999999998 8 40.539999999999964 8 47 C5.360000000000014 47 2.7200000000000273 47 0 47 C0 40.73000000000002 0 34.460000000000036 0 28 C-6.269999999999982 28 -12.54000000000002 28 -19 28 C-19 25.360000000000014 -19 22.720000000000027 -19 20 C-12.730000000000018 20 -6.4599999999999795 20 0 20 C0 13.399999999999977 0 6.7999999999999545 0 0 Z " fill="#000000" transform="translate(294,672)"/>
<path d="M0 0 C7.803118908382089 0 7.803118908382089 0 11.9375 3.4375 C29.52689867512828 17.01401673695011 49.104074424225246 23.9903456648683 71 27 C71 29.970000000000027 71 32.940000000000055 71 36 C65.30216440606478 36.17227498436307 60.336289922009655 35.680124379156155 54.8125 34.3125 C54.07491455078127 34.13315917968748 53.33732910156249 33.953818359374964 52.577392578125 33.76904296875 C35.82488314569417 29.53969120938882 22.230957090808715 21.852201062867607 8 12 C8 23.220000000000027 8 34.440000000000055 8 46 C5.360000000000014 46 2.7200000000000273 46 0 46 C0 30.82000000000005 0 15.639999999999986 0 0 Z " fill="#000000" transform="translate(262,758)"/>
</svg>
