<?xml version="1.0" encoding="UTF-8"?>
<!-- Generator: visioncortex VTracer 0.6.0 -->
<svg version="1.1" xmlns="http://www.w3.org/2000/svg" width="504" height="1024">
<path d="M0 0 C3 1 3 1 4.24609375 3.21484375 C5.03898983035748 5.026806268062899 5.83066113330915 6.839305239768521 6.62109375 8.65234375 C8.183763444749218 11.312866374771374 9.132638176529213 11.985732433380292 12 13 C13.991104006735043 13.38290461667981 15.9910051266437 13.726046153633206 18 14 C18.329999999999984 14.990000000000009 18.660000000000025 15.980000000000018 19 17 C14.737051053803839 18.43381352817886 12.289045658529176 17.444449440598362 8.33203125 15.57421875 C4.105389318924949 12.721058451468593 1.1151193420062668 8.61480583710454 -1 4 C-0.6796875 1.6875 -0.6796875 1.6875 0 0 Z " fill="#000000" transform="translate(357,274)"/>
<path d="M0 0 C1.6499999999999773 0 3.3000000000000114 0 5 0 C7.757684246686608 5.781806595007083 9.146072127427203 11.470535876914028 10.41015625 17.734375 C10.623128509521507 18.767014770507785 10.836100769042957 19.799654541015627 11.055526733398438 20.86358642578125 C11.50375006349492 23.048100653118127 11.948135192430243 25.233405499469484 12.388916015625 27.41943359375 C13.052433376300087 30.70022512485872 13.73331861862664 33.977059453574725 14.416015625 37.25390625 C16.991770604528597 49.80433923260546 18.968683816742214 62.22732556757131 20 75 C21.074675292968777 75.24556640625002 22.149350585937498 75.49113281249998 23.256591796875 75.744140625 C33.587595155838585 78.13520227867508 43.77698988761972 81.10166060721713 53.1640625 86.16796875 C59.12101759068668 88.86761009960907 67.71754531528967 86.73448321992441 74 86 C74.75 88.25 74.75 88.25 75 91 C73.71034823956165 92.37562854446753 72.37310707438155 93.70766392999383 71 95 C70.34207934378702 97.56963215475821 70.34207934378702 97.56963215475821 70 100 C69.36835937500001 99.90718749999996 68.73671875000002 99.81437500000004 68.0859375 99.71875 C59.367026277458194 99.01520673132222 53.768595239972626 102.43484870537429 46.70458984375 106.9306640625 C44.12556177066921 108.5485590725392 41.477170040977114 110.02862341198352 38.8125 111.5 C37.9526953125 111.98468750000006 37.092890624999995 112.46937500000001 36.20703125 112.96875 C34 114 34 114 31 114 C31.075168457031282 114.59909179687497 31.150336914062507 115.19818359374995 31.227783203125 115.8154296875 C33.70875768099336 135.83574981276251 35.492657165558114 155.88632835631415 37 176 C37.088582763671866 177.17363098144529 37.088582763671866 177.17363098144529 37.178955078125 178.3709716796875 C37.52624565433791 182.99858297599644 37.8570681831888 187.62692531783364 38.165496826171875 192.25729370117188 C38.262632720482316 193.69791762175146 38.36341701262103 195.13830070362997 38.468048095703125 196.57839965820313 C38.611286248454746 198.57100476782955 38.7376634037783 200.56480026821112 38.86328125 202.55859375 C38.93844970703128 203.6857983398438 39.01361816406251 204.8130029296875 39.091064453125 205.974365234375 C38.99647715773449 209.11704714261737 38.35339084660609 211.18543191401773 37 214 C34.75000000000006 214.3125 34.75000000000006 214.3125 32 214 C28.434137963007743 210.65700434031976 26.655375740750912 206.37966585024253 24.5703125 202.0390625 C22.254522033606236 197.55725906006387 19.607752609485033 193.28615125925762 16.946533203125 189.00244140625 C14 184.2069196428572 14 184.2069196428572 14 182 C13.340000000000032 182 12.680000000000007 182 12 182 C11.340000000000032 180.01999999999998 10.680000000000007 178.03999999999996 10 176 C9.340000000000032 176 8.680000000000007 176 8 176 C6.431994194907816 173.86432086038326 4.9870626310284365 171.72931941872685 3.5625 169.5 C2.6691468841241317 168.1294396847818 1.7745708779395954 166.75967585426145 0.87890625 165.390625 C0.41113769531250455 164.67326171875004 -0.056630859374990905 163.95589843749997 -0.53857421875 163.216796875 C-2.972598066968203 159.52469254125106 -5.485816389173692 155.88779192231573 -8 152.25 C-12.870184254607011 145.19472361808948 -12.870184254607011 145.19472361808948 -15 142 C-20.913436397287853 144.26101979896293 -26.130905529217443 146.9250420039466 -31.1875 150.75 C-35.80709203825256 154.17238433227396 -40.530436135059915 157.314056371451 -45.40234375 160.36328125 C-47.694295721113406 161.80738331901728 -49.94496905573368 163.29336613452926 -52.1875 164.8125 C-57.14488700158293 168.15041393391516 -62.2324836487619 171.2776350277153 -67.328857421875 174.397705078125 C-71.0980710400857 176.72624967386662 -74.56623223987191 179.1866446616482 -78 182 C-79.33031249999999 182.74250000000006 -79.33031249999999 182.74250000000006 -80.6875 183.5 C-83.19201838513146 185.12455246603122 -83.95677814389626 186.2496878339083 -85 189 C-86.6661190515158 189.04272100132096 -88.33382884892825 189.0406383207578 -90 189 C-91 188 -91 188 -91.25 184.4375 C-91.11861336154232 177.05357091867893 -87.9960576646227 171.6787222143082 -83.8671875 165.7421875 C-81.498519572314 162.26351619197578 -79.281860629162 158.70015032431024 -77.0625 155.125 C-74.14982976482693 150.4419257318541 -71.22499512614118 145.7688948310497 -68.25 141.125 C-63.25772256427973 133.2749936583184 -58.62443312056638 125.41775094521552 -54.54833984375 117.049560546875 C-52.91511047986728 113.72506596874223 -51.17492234116247 110.58374484751243 -49.125 107.5 C-47.08518188803822 104.39680129852377 -46.281669963705895 101.75559951607818 -46 98 C-47.98000000000002 97.00999999999999 -47.98000000000002 97.00999999999999 -50 96 C-50 95.34000000000003 -50 94.68 -50 94 C-50.66 94 -51.31999999999999 94 -52 94 C-53.50781250000003 92.3203125 -53.50781250000003 92.3203125 -55.125 90.125 C-55.66382812500001 89.405703125 -56.20265624999999 88.68640625 -56.7578125 87.9453125 C-58 86 -58 86 -58 84 C-58.66 84 -59.31999999999999 84 -60 84 C-61.33203125000003 82.64453125 -61.33203125000003 82.64453125 -62.8125 80.8125 C-70.51691140207453 71.33173637117369 -79.96130730166175 62.99859434293734 -90.19921875 56.375 C-90.79347656249999 55.921249999999986 -91.38773437500001 55.46749999999997 -92 55 C-92 54.34000000000003 -92 53.68000000000001 -92 53 C-92.66 53 -93.32 53 -94 53 C-94 52.34000000000003 -94 51.68000000000001 -94 51 C-94.734765625 50.72929687499999 -95.46953124999999 50.45859374999998 -96.2265625 50.1796875 C-98.88471128803411 49.0490382972024 -101.01157704324112 47.77171707817496 -103.375 46.125 C-106.18551159331903 44.17926120462528 -108.93295814308834 42.501966999886804 -112 41 C-115 39 -115 39 -116 35.8125 C-116 33 -116 33 -115 32 C-107.21413532501128 32.37268446935428 -100.40496295118785 34.63085136879357 -93.0625 37.125 C-82.3041495924843 40.692543289185494 -71.50743025439368 43.880249012545505 -60.527587890625 46.70361328125 C-54.86047047619175 48.172108206931455 -49.44283408857365 49.85543504725064 -44 52 C-41.04866388841174 53.08224488472513 -38.08711413175098 54.1351699795095 -35.125 55.1875 C-34.36703124999997 55.46013671874999 -33.60906249999999 55.732773437499986 -32.828125 56.013671875 C-29.009255578537932 57.47391815698495 -29.009255578537932 57.47391815698495 -25 58 C-22.665106099803324 52.971145773220655 -20.33586613892868 47.93972303798773 -18.011474609375 42.906005859375 C-17.222599410602925 41.199587362825184 -16.432274153764695 39.49383835189872 -15.640380859375 37.788818359375 C-11.08070826935483 27.96865063703558 -6.711853596312267 18.177419718344026 -3 8 C-2.396906993146615 6.395429378107622 -1.7928825003108386 4.79120822903451 -1.1875 3.1875 C-0.7956249999999727 2.1356250000000045 -0.4037500000000023 1.083750000000009 0 0 Z M1 6 C0.6700000000000159 7.319999999999993 0.34000000000003183 8.639999999999986 0 10 C0.9900000000000091 10.329999999999984 1.9800000000000182 10.660000000000025 3 11 C3 9.350000000000023 3 7.699999999999989 3 6 C2.340000000000032 6 1.6800000000000068 6 1 6 Z M2 17 C1.7318750000000023 17.65742187500001 1.4637500000000045 18.314843750000023 1.1875 18.9921875 C-9.579564489112215 45.13065326633165 -9.579564489112215 45.13065326633165 -15.96875 55.8359375 C-17.28679104794236 58.20229072038444 -17.28679104794236 58.20229072038444 -17 62 C-16.11699218749999 62.24234375000003 -15.233984374999977 62.48468750000001 -14.32421875 62.734375 C-7.572964899555643 64.61979497971595 -0.946140503331037 66.63716291781805 5.59765625 69.16796875 C8.050128682252875 70.01736164117051 10.446802116024173 70.54943566753366 13 71 C12.315044262075958 63.74707979731511 11.050869220699894 56.70342569849953 9.625 49.5625 C7.893074241038505 40.7895269088491 6.25187551422664 32.02233816345165 4.98876953125 23.168212890625 C4.723679992642587 21.434378427892227 4.371172563795369 19.71425941313578 4 18 C3.340000000000032 17.670000000000016 2.680000000000007 17.339999999999975 2 17 Z M-107 38 C-106.66999999999999 38.65999999999997 -106.34 39.31999999999999 -106 40 C-105.00999999999999 40 -104.02000000000001 40 -103 40 C-102.66999999999999 40.65999999999997 -102.34 41.31999999999999 -102 42 C-102 40.68000000000001 -102 39.360000000000014 -102 38 C-103.65 38 -105.30000000000001 38 -107 38 Z M-92 44 C-91.67000000000002 45.31999999999999 -91.34 46.639999999999986 -91 48 C-90.34 48 -89.68 48 -89 48 C-89 48.65999999999997 -89 49.31999999999999 -89 50 C-87.91718750000001 50.34031249999998 -87.91718750000001 50.34031249999998 -86.8125 50.6875 C-83.44144766906265 52.26065775443743 -81.5903494307579 54.346471314833366 -79 57 C-75.34815826992264 59.95957938309459 -75.34815826992264 59.95957938309459 -71 61 C-70.7421875 61.582656250000014 -70.484375 62.16531250000003 -70.21875 62.765625 C-68.90165983406939 65.1802903042061 -67.44911615866616 66.81740177488189 -65.5 68.75 C-64.89156249999999 69.36359375 -64.28312499999998 69.97718750000001 -63.65625 70.609375 C-62.105157229519534 72.21434087648709 -62.105157229519534 72.21434087648709 -60 72 C-59.77312499999999 72.55687499999999 -59.546249999999986 73.11374999999998 -59.3125 73.6875 C-57.62971908019392 76.65239971584879 -55.438914883509284 78.61651500020685 -53 81 C-51.42010539335109 82.86326636656383 -49.86746201753758 84.74448631602871 -48.33203125 86.64453125 C-47.892460937500005 87.09183593750004 -47.45289062500001 87.53914062500002 -47 88 C-46.34000000000003 88 -45.68000000000001 88 -45 88 C-44.34000000000003 89.98000000000002 -43.68000000000001 91.96000000000004 -43 94 C-39.94104139614444 93.35001685704583 -39.94104139614444 93.35001685704583 -38.988525390625 91.237548828125 C-38.69453857421877 90.48497802734374 -38.400551757812536 89.73240722656249 -38.09765625 88.95703125 C-37.597822265624984 87.71663085937502 -37.597822265624984 87.71663085937502 -37.087890625 86.451171875 C-36.74951171875 85.58041015624997 -36.4111328125 84.7096484375 -36.0625 83.8125 C-32.2788788316808 74.18212704556913 -32.2788788316808 74.18212704556913 -29.74609375 70.57421875 C-27.719326070183456 68.1046329936558 -27.719326070183456 68.1046329936558 -28 65 C-29.037695312499977 64.69449218750003 -30.07539062500001 64.388984375 -31.14453125 64.07421875 C-39.79281227335582 61.50969562599721 -48.41731025408282 58.87969019760544 -57.015625 56.15234375 C-57.79930953979493 55.90415390014647 -58.58299407958984 55.65596405029294 -59.39042663574219 55.40025329589844 C-63.362741707870384 54.14174552989607 -67.33340163795287 52.878327073170794 -71.302001953125 51.608154296875 C-72.78591618994062 51.13703734377145 -74.26988205276979 50.666082961861036 -75.75390625 50.1953125 C-76.44063415527344 49.973709564209 -77.12736206054689 49.75210662841795 -77.83489990234375 49.52378845214844 C-80.6821581085845 48.62454404144938 -82.99274309381235 48 -86 48 C-86 47.34000000000003 -86 46.68000000000001 -86 46 C-88.81509993459159 43.722649901887394 -88.81509993459159 43.722649901887394 -92 44 Z M-26 61 C-25.670000000000016 62.31999999999999 -25.340000000000032 63.639999999999986 -25 65 C-22.029999999999973 65.495 -22.029999999999973 65.495 -19 66 C-19.659999999999968 64.35000000000002 -20.319999999999993 62.69999999999999 -21 61 C-22.649999999999977 61 -24.30000000000001 61 -26 61 Z M-21 68 C-25.0059717060268 75.82892947624526 -28.98175736382143 83.68192509581519 -32.625 91.6875 C-33.132890625000016 92.7844921875 -33.64078125000003 93.88148437500001 -34.1640625 95.01171875 C-35.21476860976708 97.88956605896806 -35.21476860976708 97.88956605896806 -34.50390625 100.41796875 C-32.387867642619995 104.05095970968353 -29.893068486082996 107.31140503497465 -27.3125 110.625 C-22.51060698885715 116.89485910283759 -18.07490906884857 123.22761591374467 -14 130 C-7.036230610686857 128.45962704752515 -1.2234441945130357 125.60851346188952 4.8642578125 121.9921875 C9.460178145822567 119.26755373765559 14.06806822435658 117.04079935543871 19 115 C18.77545121454284 110.32319081323737 18.423148151657188 105.66252054285201 18 101 C17.92442871093749 100.14937988281247 17.848857421874982 99.29875976562494 17.77099609375 98.42236328125 C17.51082645686529 95.71336531074996 17.19917443631175 93.01452450915212 16.875 90.3125 C16.794675292968748 89.43948242187503 16.714350585937495 88.56646484375 16.631591796875 87.6669921875 C16.31567653274817 85.25952440919508 15.948012464559554 83.23582370352966 15 81 C12.416093247330991 79.36805889305111 10.863403325604963 78.76885344915155 8 78 C6.162360867154689 77.35088963047934 4.327955429429608 76.6925840387837 2.49609375 76.02734375 C0.4774607947789491 75.32813037803498 -1.5420935307387822 74.63157207580105 -3.5625 73.9375 C-4.57763671875 73.58623046874999 -5.5927734375 73.23496093749998 -6.638671875 72.873046875 C-11.417044905395926 71.2219957103498 -16.198876224910293 69.5839604933202 -21 68 Z M18 78 C17.66999999999996 79.32 17.340000000000032 80.63999999999999 17 82 C18.319999999999993 81.67000000000002 19.639999999999986 81.34000000000003 21 81 C20.66999999999996 80.00999999999999 20.340000000000032 79.01999999999998 20 78 C19.340000000000032 78 18.680000000000007 78 18 78 Z M20 82 C20 82.65999999999997 20 83.32 20 84 C20.659999999999968 84 21.319999999999993 84 22 84 C22 83.34000000000003 22 82.68 22 82 C21.340000000000032 82 20.680000000000007 82 20 82 Z M24 84 C22.900834383991935 87.29749684802414 23.109762726284544 88.54881363142266 23.77734375 91.88671875 C23.961035156249977 92.82451171874999 24.14472656250001 93.76230468749998 24.333984375 94.728515625 C24.533144531250002 95.70498046875002 24.732304687500005 96.68144531250005 24.9375 97.6875 C25.230439453124973 99.16959960937504 25.230439453124973 99.16959960937504 25.529296875 100.681640625 C26.01275776292232 103.12252852255904 26.503239664370426 105.56179009261734 27 108 C36.30442192573855 106.179569623225 44.12722935800832 102.24851376132779 52 97 C51.014051974194274 94.38952080165745 50.45013626961372 93.23097216892779 47.924560546875 91.93505859375 C47.08707275390623 91.6754736328125 46.24958496093751 91.415888671875 45.38671875 91.1484375 C44.009033203125 90.707578125 44.009033203125 90.707578125 42.603515625 90.2578125 C41.641230468749995 89.966484375 40.67894531249999 89.67515624999999 39.6875 89.375 C37.79522944647283 88.77973658519551 35.903291275141385 88.18341533463587 34.01171875 87.5859375 C32.75041137695314 87.19994384765624 32.75041137695314 87.19994384765624 31.463623046875 86.80615234375 C28.925901725561175 85.97575339389584 26.46825458420892 85.01684262763547 24 84 Z M56 92 C56 92.99000000000001 56 93.98000000000002 56 95 C60.45500000000004 94.505 60.45500000000004 94.505 65 94 C65 93.00999999999999 65 92.01999999999998 65 91 C61.8009736063766 90.91113815573271 59.07322543609297 91.0894146856021 56 92 Z M-42 98 C-42.329999999999984 99.31999999999994 -42.65999999999997 100.63999999999999 -43 102 C-41.514999999999986 102.99000000000001 -41.514999999999986 102.99000000000001 -40 104 C-39.34000000000003 103.66999999999996 -38.68000000000001 103.34000000000003 -38 103 C-38.329999999999984 101.35000000000002 -38.65999999999997 99.70000000000005 -39 98 C-39.99000000000001 98 -40.98000000000002 98 -42 98 Z M-40 104 C-39.670000000000016 104.65999999999997 -39.34000000000003 105.31999999999994 -39 106 C-38.670000000000016 105.34000000000003 -38.34000000000003 104.68000000000006 -38 104 C-38.65999999999997 104 -39.31999999999999 104 -40 104 Z M-41 108 C-41.458906249999984 109.06218749999994 -41.91781249999997 110.12437499999999 -42.390625 111.21875 C-45.4351758348198 118.23780847776857 -48.52400427517634 125.18170069361508 -52 132 C-52.329999999999984 132.99 -52.66 133.98000000000002 -53 135 C-53.577499999999986 135.53625 -54.155 136.0725 -54.75 136.625 C-57.937692441211 139.98978646572277 -62 145.18807577203347 -62 150 C-62.66 150 -63.31999999999999 150 -64 150 C-65.36637652935858 151.71801281704813 -65.36637652935858 151.71801281704813 -66.625 153.875 C-67.071015625 154.59429687500005 -67.51703125 155.31359375 -67.9765625 156.0546875 C-69.15519998035552 157.9286476235352 -69.15519998035552 157.9286476235352 -69 160 C-69.66 160 -70.32 160 -71 160 C-71.59812499999998 160.92812500000002 -72.19624999999999 161.85625000000005 -72.8125 162.8125 C-75.06855175589266 166.09988970144354 -76.65889236659905 167.02960319055842 -80 169 C-82.14774179915253 171.96240248158972 -83 173.31446856269952 -83 177 C-82.00999999999999 177 -81.02000000000001 177 -80 177 C-79.34 176.01 -78.68 175.01999999999998 -78 174 C-76.51499999999999 173.505 -76.51499999999999 173.505 -75 173 C-74.34128906249998 172.31035156250005 -73.68257812499999 171.62070312499998 -73.00390625 170.91015625 C-68.91611866648935 166.66415135771183 -63.835130820271104 163.6603252852252 -58.9375 160.4375 C-57.352315673828116 159.3871960449219 -57.352315673828116 159.3871960449219 -55.735107421875 158.315673828125 C-46.61357399644368 152.31461104182745 -37.32155038987446 146.63166848137155 -27.90087890625 141.11474609375 C-25.59049156532734 139.75984902225593 -23.29341447784509 138.38340232030328 -21 137 C-21.934934391490856 135.1029001182369 -22.873062960001164 133.20737422423122 -23.8125 131.3125 C-24.334570312499977 130.25675781249993 -24.85664062500001 129.20101562499997 -25.39453125 128.11328125 C-26.83478098276146 125.32038821591027 -28.2376465737907 122.60248903212823 -30 120 C-30.659999999999968 120 -31.319999999999993 120 -32 120 C-32.12246093750002 119.42765625000004 -32.24492187499999 118.85531249999997 -32.37109375 118.265625 C-33.0276286849608 115.90046809144553 -33.93723511923389 113.92793202728922 -35.0625 111.75 C-35.605839843750005 110.69039062499996 -35.605839843750005 110.69039062499996 -36.16015625 109.609375 C-36.43730468749999 109.07828125000003 -36.71445312499998 108.54718750000006 -37 108 C-38.31999999999999 108 -39.639999999999986 108 -41 108 Z M23 112 C23.144374999999968 112.72187499999995 23.288749999999993 113.44375000000002 23.4375 114.1875 C23.95833333333337 116.79166666666663 24.47916666666663 119.39583333333337 25 122 C27.213700506730902 120.21342243190111 27.213700506730902 120.21342243190111 27.1953125 117.8359375 C27.17210937499999 117.02382812500002 27.148906249999982 116.21171875000005 27.125 115.375 C27.097929687500027 114.14910156249994 27.097929687500027 114.14910156249994 27.0703125 112.8984375 C27.04710937499999 112.27195312499998 27.023906249999982 111.64546874999996 27 111 C24.925464400750002 110.8509288015 24.925464400750002 110.8509288015 23 112 Z M21 120 C18.491365864313252 121.0893947995745 16.108054962869062 122.23807802492354 13.6875 123.5 C12.978515625 123.86222656250004 12.26953125 124.22445312499997 11.5390625 124.59765625 C4.974391136049178 127.96806891807489 -1.5286661850735754 131.45406366305406 -8 135 C-7.220939242938584 138.47238508861653 -6.044649279021485 141.055705038209 -4 144 C-3.340000000000032 144 -2.680000000000007 144 -2 144 C-1.8762500000000273 144.5775 -1.7524999999999977 145.15499999999997 -1.625 145.75 C-0.9935117587973537 148.0233576683296 -0.11141809186051432 149.92535289519367 1 152 C1.6599999999999682 152 2.319999999999993 152 3 152 C4.075251941122474 154.6522881214355 5.0945615136103015 157.28368454083102 6 160 C6.659999999999968 160 7.319999999999993 160 8 160 C8.659999999999968 161.98000000000002 9.319999999999993 163.96000000000004 10 166 C10.659999999999968 166 11.319999999999993 166 12 166 C12.216562500000009 166.641953125 12.433125000000018 167.28390624999997 12.65625 167.9453125 C14.888819500987552 173.0205140981751 18.021832420292924 177.57180865487499 21.01171875 182.23046875 C23.86264298536713 186.77818971526392 25.82462723674672 190.7528001640478 27 196 C28.319999999999993 196 29.639999999999986 196 31 196 C30.85498046875 195.32122802734375 30.7099609375 194.6424560546875 30.560546875 193.943115234375 C27.987930343482162 180.43575796632297 27.284932670743615 166.607113528171 26.32275390625 152.915283203125 C25.71753823411086 144.3751097254468 25.08237316825614 135.8464046277669 24.03125 127.34765625 C23.807919921874998 125.53986694335936 23.807919921874998 125.53986694335936 23.580078125 123.695556640625 C23.388652343749982 122.80602294921869 23.197226562499964 121.91648925781249 23 121 C22.340000000000032 120.66999999999996 21.680000000000007 120.34000000000003 21 120 Z M-19 132 C-18.37466625301022 134.5236398816396 -18.37466625301022 134.5236398816396 -17 137 C-14.452246938709607 137.89386163724726 -14.452246938709607 137.89386163724726 -12 138 C-12.329999999999984 136.35000000000002 -12.659999999999968 134.70000000000005 -13 133 C-15.970000000000027 132.505 -15.970000000000027 132.505 -19 132 Z M31 189 C32 192 32 192 32 192 Z M32 192 C32 194.64 32 197.27999999999997 32 200 C32.99000000000001 200 33.98000000000002 200 35 200 C34.66999999999996 197.36 34.34000000000003 194.72000000000003 34 192 C33.34000000000003 192 32.68000000000001 192 32 192 Z M33 203 C32.66999999999996 204.64999999999998 32.34000000000003 206.29999999999995 32 208 C32.99000000000001 207.66999999999996 33.98000000000002 207.34000000000003 35 207 C34.66999999999996 205.68000000000006 34.34000000000003 204.36 34 203 C33.66999999999996 203 33.34000000000003 203 33 203 Z " fill="#000000" transform="translate(304,416)"/>
<path d="M0 0 C10.145819027014767 1.3125709930054086 17.120222913908094 7.540347238576544 23.3203125 15.21875 C26.63026828970709 20.699420982026652 26.14663865448233 25.59150342688929 24.78515625 31.60546875 C22.870412870058317 37.44495975449877 18.47448759061126 40.64824891184264 13.453125 43.7265625 C11.611266210776023 45.340664557223135 11.380948839397632 46.62408223849377 11 49 C9.02000000000001 49 7.039999999999992 49 5 49 C4.6699999999999875 47.01999999999998 4.340000000000003 45.039999999999964 4 43 C4.75925781250001 42.385117187499986 5.518515624999992 41.77023437499997 6.30078125 41.13671875 C7.294648437500001 40.328476562499986 8.288515625000002 39.52023437499997 9.3125 38.6875 C10.298632812499989 37.88699218750003 11.284765625000006 37.086484375000055 12.30078125 36.26171875 C13.636894531249993 35.14216796874996 13.636894531249993 35.14216796874996 15 34 C15.620039062499984 33.504999999999995 16.240078124999997 33.00999999999999 16.87890625 32.5 C18.20526785806686 31.017868860317435 18.20526785806686 31.017868860317435 18.1015625 28.80078125 C16.787506547403268 21.939685825376102 14.427679002119731 17.472101713014126 9 13 C5.438710770430106 10.759834194302812 1.7954106968349777 8.811913967385976 -2 7 C-1.125 1.125 -1.125 1.125 0 0 Z " fill="#000000" transform="translate(132,486)"/>
<path d="M0 0 C0.6599999999999966 0.3300000000000409 1.3199999999999932 0.6599999999999682 2 1 C2.2734375 3.23046875 2.2734375 3.23046875 2 6 C0.1015625 8.23828125 0.1015625 8.23828125 -2.375 10.3125 C-3.1871093750000057 11.009882812499995 -3.999218749999997 11.707265624999991 -4.8359375 12.42578125 C-7 14 -7 14 -9 14 C-11.779921777456963 22.339765332370916 -9.862112981424914 30.158036069670743 -6.55078125 38.05859375 C-4.7325900375226695 41.507203278955785 -2.752813369229983 43.82751015787778 0.1640625 46.375 C2.871085090735164 48.77100297392735 5.099270363457322 51.5386182593453 7.421875 54.30078125 C9.087349756196119 56.22592517193539 9.087349756196119 56.22592517193539 12 58 C12 58.65999999999997 12 59.32000000000005 12 60 C12.587812499999998 60.26554687500004 13.175624999999997 60.53109374999997 13.78125 60.8046875 C16.05972641681967 62.03217655554022 17.622169926054582 63.35423918465676 19.5 65.125 C24.582577755594315 69.6973947611881 30.258069042642887 73.31559430236257 36 77 C34.55555555555554 81.69444444444446 34.55555555555554 81.69444444444446 32.203125 82.98828125 C29.081696664551913 83.0048845922098 27.378614284758157 81.82846242630376 24.75 80.1875 C23.857968749999998 79.64480468750003 22.965937499999995 79.10210937500005 22.046875 78.54296875 C21.371406250000007 78.03378906249998 20.6959375 77.52460937499995 20 77 C20 76.34000000000003 20 75.68000000000006 20 75 C19.340000000000003 74.81437500000004 18.680000000000007 74.62874999999997 18 74.4375 C9.451165823514131 70.34118362376717 1.5639285411104709 61.59065165230538 -4 54 C-4 53.34000000000003 -4 52.67999999999995 -4 52 C-4.659999999999997 52 -5.319999999999993 52 -6 52 C-13.471544461982276 44.208515346950435 -18.430613305888272 34.9465176681631 -19.3125 24.1875 C-19.186233087655182 19.371319200561743 -17.946035205689583 15.827695376735392 -15 12 C-11.511967148714618 8.750148451154473 -7.819755477237962 5.847964745528884 -4 3 C-3.2265625 2.41863281250005 -2.453125 1.8372656249999864 -1.65625 1.23828125 C-0.836406249999996 0.6253320312499682 -0.836406249999996 0.6253320312499682 0 0 Z " fill="#000000" transform="translate(104,516)"/>
<path d="M0 0 C1.6470675831865549 0.9426191260191672 3.2558336968686206 1.951612599065129 4.85546875 2.97265625 C4.85546875 3.632656249999968 4.85546875 4.29265625000005 4.85546875 4.97265625 C5.515468749999997 4.97265625 6.175468749999993 4.97265625 6.85546875 4.97265625 C6.85546875 5.632656249999968 6.85546875 6.29265625000005 6.85546875 6.97265625 C7.515468749999997 6.97265625 8.175468749999993 6.97265625 8.85546875 6.97265625 C18.444351949939687 18.17122561888266 18.444351949939687 18.17122561888266 18.60546875 24.97265625 C18.0572826032367 29.456328017556643 16.68663910093406 32.40988439021942 13.203125 35.3828125 C8.47333086699166 38.97265625 8.47333086699166 38.97265625 4.85546875 38.97265625 C4.85546875 39.63265624999997 4.85546875 40.29265625000005 4.85546875 40.97265625 C-0.16361093574636243 45.05795366863072 -0.16361093574636243 45.05795366863072 -4.01953125 44.72265625 C-4.7207812499999875 44.475156250000055 -5.422031250000003 44.227656249999995 -6.14453125 43.97265625 C-5.089603210832763 39.60224008773571 -4.410453693509879 36.97218087290594 -0.82421875 34.140625 C2.6679104796866966 32.04840180262215 5.988550278924521 30.26162907369178 9.85546875 28.97265625 C10.522256208217954 23.638356584256485 8.892601380991636 20.925879687754673 5.94921875 16.70703125 C4.85546875 14.97265625 4.85546875 14.97265625 4.85546875 12.97265625 C0.5951747592095273 10.751293892081549 -3.8480204746363427 8.95119393173536 -8.275390625 7.095703125 C-13.038304143772905 5.078883356227152 -13.038304143772905 5.078883356227152 -14.14453125 3.97265625 C-14.185339079325047 1.9730726130731 -14.187074812981166 -0.02779628988582772 -14.14453125 -2.02734375 C-9.287731276380384 -3.646277074539853 -4.557066468845932 -2.1830755579353536 0 0 Z " fill="#000000" transform="translate(151.14453125,561.02734375)"/>
<path d="M0 0 C11.6699076935258 -0.8205403847010757 21.485835181543024 1.14301568780229 32.15087890625 5.974365234375 C39.803521767656946 9.364988750341467 47.647093166656646 10.481750234419337 55.875 11.5625 C57.0112129211426 11.718335571289117 57.0112129211426 11.718335571289117 58.170379638671875 11.8773193359375 C74.02730414770065 14.038403538279908 89.94587321654512 15.155418849542912 105.91552734375 16.099853515625 C106.83263992309571 16.154663848876908 107.74975250244142 16.20947418212893 108.69465637207031 16.265945434570313 C110.41989745759975 16.367346152665277 112.14539090052898 16.46456935292167 113.87113952636719 16.556930541992188 C117.11301533788526 16.74343587465239 119.90376540443663 16.967921801478838 123 18 C123.33000000000004 19.980000000000018 123.65999999999997 21.960000000000036 124 24 C116.02805149882778 27.985974250586082 101.58440381591595 24.541517075332877 92.77392578125 23.883056640625 C90.13766599822463 23.68843506585972 87.50064739514971 23.508994923791533 84.86328125 23.330078125 C61.28300829396056 21.64150414698031 61.28300829396056 21.64150414698031 54 18 C54 19.32000000000005 54 20.639999999999986 54 22 C54.72574218750003 22.247499999999945 55.45148437500001 22.495000000000005 56.19921875 22.75 C59.27845263678398 24.124274538034683 61.31466039454631 25.746559294582426 63.8125 28 C64.99779296874999 29.051874999999995 64.99779296874999 29.051874999999995 66.20703125 30.125 C68 32 68 32 68 34 C68.99000000000001 34.33000000000004 69.98000000000002 34.65999999999997 71 35 C74.06272127183888 39.46282242467953 75.73946853543947 42.45398598420388 75 48 C74.25 50.3125 74.25 50.3125 73 52 C64.81218384670728 55.25162076901097 52.12206262894841 50.871988395953736 43.8125 48.875 C35.717893602432014 46.945769557503354 27.088706957007872 45.303764347664014 19 48 C18.71867813889321 53.53266326843311 18.796937358084108 56.32886698053926 22 61 C22 61.99000000000001 22 62.98000000000002 22 64 C22.763125000000002 64.28874999999994 23.526250000000005 64.57749999999999 24.3125 64.875 C27 66 27 66 30 68 C30 68.65999999999997 30 69.31999999999994 30 70 C31.650000000000006 70.65999999999997 33.30000000000001 71.31999999999994 35 72 C35 72.65999999999997 35 73.31999999999994 35 74 C35.515625 74.08249999999998 36.03125 74.16499999999996 36.5625 74.25 C39 75 39 75 42.15625 76.8828125 C45.94239399857713 79.07927880095815 49.751611732867104 80.39789292843932 53.9375 81.625 C54.602011718749964 81.82867187500005 55.26652343750004 82.03234375 55.951171875 82.2421875 C59.406449494060894 83.2878195243909 62.8719026883461 84.229566962038 66.37890625 85.0859375 C70 86 70 86 72 87 C71.66999999999996 89.30999999999995 71.34000000000003 91.62 71 94 C62.02925248715303 94.53191746652851 53.990977372648786 92.92323460667558 45.3125 90.8125 C43.267647381910024 90.32969485709532 41.22176882447178 89.85142466793002 39.17576599121094 89.37351989746094 C37.799450694663506 89.05188878465265 36.423441779649124 88.7289437507419 35.04774475097656 88.40467834472656 C28.409359768859076 86.84436846920005 21.7421834937864 85.43474431496907 15.0625 84.0625 C14.038742675781236 83.85149658203125 13.014985351562501 83.64049316406249 11.960205078125 83.423095703125 C9.640603842421513 82.94639327810512 7.320602083393226 82.47180167910335 5 82 C6.053342914601615 85.26740836131273 7.1840215345180525 88.46602210227945 8.4453125 91.66015625 C12.91534440432821 103.19399194673645 15.74130394892478 114.93081348351188 18.3125 127 C18.483079223632814 127.79882598876952 18.653658447265627 128.59765197753904 18.82940673828125 129.42068481445313 C24.31456308897083 155.27184555145834 24.31456308897083 155.27184555145834 24.125 164.75 C24.106953125000018 165.94109374999994 24.08890624999998 167.1321875 24.0703125 168.359375 C24.04710937499999 169.23078125000006 24.023906249999982 170.1021875 24 171 C22.680000000000007 171 21.360000000000014 171 20 171 C18.141286407605264 164.90609382499179 16.848089275799282 158.7432385409494 15.57421875 152.50390625 C15.10253292009088 150.22975144218753 14.63051690121597 147.95566509910532 14.158203125 145.681640625 C13.424253645513005 142.13490970167913 12.69266359701362 138.5877510567617 11.967041015625 135.039306640625 C8.284971985463812 113.85950513832586 8.284971985463812 113.85950513832586 0.858154296875 93.838134765625 C0 92 0 92 0 88 C-0.6599999999999966 88 -1.3199999999999932 88 -2 88 C-2.3261328125000205 86.88882812500003 -2.652265624999984 85.77765625000006 -2.98828125 84.6328125 C-3.762062097930709 82.66683256089334 -3.762062097930709 82.66683256089334 -5 81 C-7.9393473122852924 79.89187545415439 -10.144726377622192 79.32116753690013 -13.1875 78.875 C-14.8265227974465 78.57044795616821 -16.46454019699584 78.26044050164114 -18.1015625 77.9453125 C-18.925595703124998 77.792236328125 -19.749628906249995 77.63916015625 -20.5986328125 77.4814453125 C-37.577660955535976 74.07735386292018 -53.7086619611716 67.29133803882837 -66 55 C-66.66 54.66999999999996 -67.32 54.34000000000003 -68 54 C-68 53.34000000000003 -68 52.67999999999995 -68 52 C-68.59425781249999 51.76539062500001 -69.18851562500001 51.53078125000002 -69.80078125 51.2890625 C-74.45977912173271 48.55821117198616 -77.02251548241418 42.82498143302291 -78.74609375 37.84375 C-79.64600762154456 33.16790885300554 -78.60191598973012 29.689823441799376 -76.28125 25.69921875 C-74.13255417600683 22.84957642244808 -72.43113297689862 21.998147775097777 -69 21 C-56.38743516143245 19.430877760241174 -47.990226115366056 24.60942553973507 -38.2734375 31.9765625 C-37.52320312500001 32.64429687500001 -36.77296874999999 33.31203125000002 -36 34 C-36 34.65999999999997 -36 35.32000000000005 -36 36 C-35.34 36 -34.68000000000001 36 -34 36 C-32.37890624999994 37.64453125 -32.37890624999994 37.64453125 -30.5625 39.8125 C-28.02660668002278 42.824632654411744 -28.02660668002278 42.824632654411744 -25.27734375 45.63671875 C-24 47 -24 47 -24 49 C-23.399296875000005 49.255234374999986 -22.79859375000001 49.51046874999997 -22.1796875 49.7734375 C-19.754686779639854 51.138043640130945 -18.718439207034464 52.36537716968553 -17.125 54.625 C-16.615820312500006 55.336562500000014 -16.10664062500001 56.04812500000003 -15.58203125 56.78125 C-15.059960937499994 57.51343750000001 -14.537890624999989 58.24562500000002 -14 59 C-12.469914245234236 60.9857771538849 -10.935077548425284 62.967641494308054 -9.39453125 64.9453125 C-8 67 -8 67 -6.8671875 70.140625 C-5.356714272764179 73.05464356305265 -5.356714272764179 73.05464356305265 -3.239990234375 73.69677734375 C-0.93097885813944 74.13626085446049 1.3474213299180633 74.40434227142885 3.6875 74.625 C5.396612684738386 74.83623495237941 7.104952679096641 75.0538073522564 8.8125 75.27734375 C9.674882812500016 75.38804199218748 10.537265625000003 75.49874023437496 11.42578125 75.61279296875 C15.414018671350732 76.21269286919221 19.28884879841297 77.16681733718599 23.1875 78.1875 C23.876101074218752 78.36684082031252 24.564702148437505 78.54618164062504 25.274169921875 78.73095703125 C26.85131589708314 79.14694783507571 28.425988227775406 79.57230300809897 30 80 C30 78.68000000000006 30 77.36000000000001 30 76 C28.514999999999986 76.495 28.514999999999986 76.495 27 77 C22.154929647176687 74.70960310593807 19.001672895932813 72.56254280181793 16 68 C16 67.34000000000003 16 66.68000000000006 16 66 C15.340000000000003 66 14.680000000000007 66 14 66 C14 65.34000000000003 14 64.68000000000006 14 64 C13.340000000000003 64 12.680000000000007 64 12 64 C9.931017259093153 58.95685456903948 9.362263379443164 54.380902735948325 10 49 C11.748392010801439 44.85907155336497 14.167298375510711 42.33294881490656 18 40 C33.18293028668248 35.9025146297447 50.4029009909882 42.261572889685 65 46 C61.43011107566855 36.546189916998514 54.45431124785773 30.308521016096734 46 25 C44.333333333333314 23.33333333333337 42.666666666666686 21.66666666666663 41 20 C37.30809955377407 17.4674963659927 33.94383106055977 16.29444154075111 29.59765625 15.28125 C28.377558593749995 14.988632812499986 27.15746093749999 14.696015624999973 25.900390625 14.39453125 C24.633886718750006 14.099335937499973 23.36738281250001 13.804140624999945 22.0625 13.5 C19.55179414990147 12.913015171339907 17.04260883075972 12.319480064203162 14.53515625 11.71875 C13.42535400390625 11.460292968749968 12.3155517578125 11.20183593750005 11.172119140625 10.935546875 C7.8166576298160635 9.94592719444745 4.993630167477619 8.814685269753909 2 7 C0.625 3.3125 0.625 3.3125 0 0 Z M8 4 C8 4.659999999999968 8 5.32000000000005 8 6 C10.474999999999994 6.4950000000000045 10.474999999999994 6.4950000000000045 13 7 C13 6.009999999999991 13 5.019999999999982 13 4 C11.349999999999994 4 9.699999999999989 4 8 4 Z M24 8 C24.329999999999984 8.990000000000009 24.659999999999997 9.980000000000018 25 11 C26.650000000000006 11 28.30000000000001 11 30 11 C30 10.340000000000032 30 9.67999999999995 30 9 C27.03 8.504999999999995 27.03 8.504999999999995 24 8 Z M40 13 C40.329999999999984 13.990000000000009 40.65999999999997 14.980000000000018 41 16 C41.99000000000001 15.340000000000032 42.98000000000002 14.67999999999995 44 14 C42.68000000000001 13.669999999999959 41.360000000000014 13.340000000000032 40 13 Z M51 18 C51.33000000000004 18.659999999999968 51.65999999999997 19.32000000000005 52 20 C52.33000000000004 19.340000000000032 52.65999999999997 18.67999999999995 53 18 C52.34000000000003 18 51.68000000000001 18 51 18 Z M-72 30 C-73.41310457356266 33.38998661947937 -72.77585495937302 35.479733728620204 -71.4375 38.8125 C-67.07055098453583 49.017054400397456 -59.063183795328456 55.53097401217053 -49.0625 59.875 C-48.3005029296875 60.210156249999955 -47.53850585937499 60.54531250000002 -46.75341796875 60.890625 C-29.882200579197274 68.17233549209607 -29.882200579197274 68.17233549209607 -12 71 C-13.330671223268752 66.26872453948886 -16.191439430543426 63.303278955978726 -19.44140625 59.76953125 C-21 58 -21 58 -22 56 C-22.659999999999997 56 -23.319999999999993 56 -24 56 C-24.659999999999997 54.35000000000002 -25.319999999999993 52.700000000000045 -26 51 C-26.659999999999997 51 -27.319999999999993 51 -28 51 C-28.247500000000002 50.38125000000002 -28.495000000000005 49.762500000000045 -28.75 49.125 C-29.821437293639377 46.862535059389074 -29.821437293639377 46.862535059389074 -32 46 C-34.549388042705175 44.725305978647384 -34.74579612920442 43.5084077415911 -36 41 C-39.05484044547194 37.95891339319087 -39.05484044547194 37.95891339319087 -43 37 C-43.329999999999984 36.00999999999999 -43.66 35.01999999999998 -44 34 C-51.38136124018334 27.962333160335447 -63.84345971894862 24.290421803264053 -72 30 Z M68 42 C68.33000000000004 43.64999999999998 68.65999999999997 45.299999999999955 69 47 C69.99000000000001 46.00999999999999 70.98000000000002 45.01999999999998 72 44 C70.68 43.34000000000003 69.36000000000001 42.67999999999995 68 42 Z M27 73 C28 75 28 75 28 75 Z M39 80 C38.670000000000016 80.65999999999997 38.34000000000003 81.31999999999994 38 82 C38.329999999999984 82.99000000000001 38.65999999999997 83.98000000000002 39 85 C41.97000000000003 85.33000000000004 44.94 85.65999999999997 48 86 C48 85.34000000000003 48 84.68000000000006 48 84 C43.545000000000016 82.01999999999998 43.545000000000016 82.01999999999998 39 80 Z " fill="#000000" transform="translate(222,712)"/>
</svg>
