<?xml version="1.0" encoding="UTF-8"?>
<!-- Generator: visioncortex VTracer 0.6.0 -->
<svg version="1.1" xmlns="http://www.w3.org/2000/svg" width="744" height="1052">
<path d="M0 0 C9.831004507248437 4.729590670658126 16.1901449982483 12.089037993282375 22.984375 20.35546875 C23.704276123046867 21.223652343750018 23.704276123046867 21.223652343750018 24.438720703125 22.109375 C25.390631996080216 23.258756403534733 26.3360859350163 24.41352449480337 27.274169921875 25.57421875 C30.15192055529215 29.046089008478248 32.25755506210953 30.647501787265696 36.26953125 33.0546875 C36.26953125 21.834687499999973 36.26953125 10.614687500000002 36.26953125 -0.9453125 C38.90953125 -0.9453125 41.54953125 -0.9453125 44.26953125 -0.9453125 C44.26953125 14.564687499999991 44.26953125 30.074687499999982 44.26953125 46.0546875 C30.014370868424052 44.01823601691774 21.12419616306569 33.05812397040427 12.51953125 22.1796875 C8.010650458416947 16.508808391892842 2.982415997493405 11.942789077409941 -3.73046875 9.0546875 C-7.944837933517306 8.720213755276404 -10.633598326512498 8.615939330604988 -14.54296875 10.1796875 C-17.423520250391704 12.648731643192889 -18.524637023131405 14.437192319394228 -19.73046875 18.0546875 C-19.787642917445893 22.759304706976025 -19.22127179890471 26.998483923832282 -16.73046875 31.0546875 C-13.140255595554777 33.208815392667134 -9.867153933209892 34.4463514436456 -5.73046875 35.0546875 C-6.060468749999998 38.02468750000003 -6.390468749999997 40.9946875 -6.73046875 44.0546875 C-14.215114015050133 43.53850506792759 -18.17179889009728 41.72966053535282 -23.48046875 36.1796875 C-28.221279069986487 29.595228722241018 -28.544630364618733 22.97240920216717 -27.73046875 15.0546875 C-25.81768379901294 7.816535355923975 -22.265758764419402 3.730318847418971 -15.86328125 -0.046875 C-10.848826431241775 -2.1591911324439366 -5.06692069058667 -1.7542128857252806 0 0 Z " fill="#000000" transform="translate(86.73046875,334.9453125)"/>
<path d="M0 0 C2.6400000000000006 0 5.280000000000001 0 8 0 C8 15.509999999999991 8 31.019999999999982 8 47 C5.359999999999999 47 2.719999999999999 47 0 47 C0 31.49000000000001 0 15.980000000000018 0 0 Z " fill="#000000" transform="translate(81,417)"/>
<path d="M0 0 C2.6400000000000006 0 5.280000000000001 0 8 0 C8 15.509999999999991 8 31.019999999999982 8 47 C5.359999999999999 47 2.719999999999999 47 0 47 C0 31.49000000000001 0 15.980000000000018 0 0 Z " fill="#000000" transform="translate(103,417)"/>
<path d="M0 0 C23.760000000000005 0 47.52000000000001 0 72 0 C72 2.9700000000000273 72 5.940000000000055 72 9 C54.18000000000001 9.330000000000041 36.36 9.659999999999968 18 10 C21.465000000000003 15.44500000000005 21.465000000000003 15.44500000000005 25 21 C25.659999999999997 22.649999999999977 26.319999999999993 24.299999999999955 27 26 C23.72102739967609 26.906949868174706 21.25691433373811 27.062574479140608 18 26 C15.321133264834259 22.94795779923902 13.280019609880753 19.728159164225985 11.14453125 16.2890625 C8.210271148443027 11.78879473039899 4.861422513537271 8.430711256768632 0 6 C0 4.019999999999982 0 2.0399999999999636 0 0 Z " fill="#000000" transform="translate(59,517)"/>
<path d="M0 0 C2.6400000000000006 0 5.280000000000001 0 8 0 C8.329999999999998 6.269999999999982 8.659999999999997 12.539999999999964 9 19 C15.27000000000001 19.33000000000004 21.539999999999992 19.659999999999968 28 20 C28 22.639999999999986 28 25.279999999999973 28 28 C21.400000000000006 28 14.799999999999997 28 8 28 C8 34.26999999999998 8 40.539999999999964 8 47 C5.359999999999999 47 2.719999999999999 47 0 47 C0 40.73000000000002 0 34.460000000000036 0 28 C-6.269999999999996 28 -12.540000000000006 28 -19 28 C-19 25.360000000000014 -19 22.720000000000027 -19 20 C-12.730000000000004 20 -6.459999999999994 20 0 20 C0 13.399999999999977 0 6.7999999999999545 0 0 Z " fill="#000000" transform="translate(92,587)"/>
<path d="M0 0 C23.760000000000005 0 47.52000000000001 0 72 0 C72 2.9700000000000273 72 5.940000000000055 72 9 C54.18000000000001 9.330000000000041 36.36 9.659999999999968 18 10 C21.465000000000003 15.44500000000005 21.465000000000003 15.44500000000005 25 21 C25.659999999999997 22.649999999999977 26.319999999999993 24.299999999999955 27 26 C23.72102739967609 26.906949868174706 21.25691433373811 27.062574479140608 18 26 C15.321133264834259 22.94795779923902 13.280019609880753 19.728159164225985 11.14453125 16.2890625 C8.210271148443027 11.78879473039899 4.861422513537271 8.430711256768632 0 6 C0 4.019999999999982 0 2.0399999999999636 0 0 Z " fill="#000000" transform="translate(59,687)"/>
</svg>
