<?xml version="1.0" encoding="UTF-8"?>
<!-- Generator: visioncortex VTracer 0.6.0 -->
<svg version="1.1" xmlns="http://www.w3.org/2000/svg" width="1080" height="1080">
<path d="M0 0 C356.40000000000003 0 712.8000000000001 0 1080 0 C1080 356.40000000000003 1080 712.8000000000001 1080 1080 C723.5999999999999 1080 367.19999999999993 1080 0 1080 C0 723.5999999999999 0 367.19999999999993 0 0 Z M646 202 C647 204 647 204 647 204 Z M643 205 C641.6438150102409 206.12534104702914 641.6438150102409 206.12534104702914 641.9375 209.0625 C641.958125 210.031875 641.97875 211.00125 642 212 C643.1251608481886 210.16715556876997 643.1251608481886 210.16715556876997 644 208 C643.67 207.01 643.34 206.02 643 205 Z M644 214 C645 216 645 216 645 216 Z M682 214 C682.33 214.66 682.66 215.32 683 216 C683.66 216 684.32 216 685 216 C685 215.34 685 214.68 685 214 C684.01 214 683.02 214 682 214 Z M694 221 C694.66 221.66 695.32 222.32 696 223 C696.66 222.34 697.32 221.68 698 221 C696.68 221 695.36 221 694 221 Z M748 236 C749.98 236.99 749.98 236.99 752 238 C751.67 237.34 751.34 236.68 751 236 C750.01 236 749.02 236 748 236 Z M742 237 C742.33 237.66 742.66 238.32 743 239 C743.99 239 744.98 239 746 239 C746 238.34 746 237.68 746 237 C744.68 237 743.36 237 742 237 Z M760 247 C760 249.97 760 252.94 760 256 C760.33 256 760.66 256 761 256 C761 253.03 761 250.06 761 247 C760.67 247 760.34 247 760 247 Z M688 256 C688 256.66 688 257.32 688 258 C689.32 257.67 690.64 257.34 692 257 C690.68 256.67 689.36 256.34 688 256 Z M717 265 C717.33 265.66 717.66 266.32 718 267 C718.99 266.67 719.98 266.34 721 266 C719.68 265.67 718.36 265.34 717 265 Z M762 267 C762 267.99 762 268.98 762 270 C762.66 270 763.32 270 764 270 C763.67 269.01 763.34 268.02 763 267 C762.67 267 762.34 267 762 267 Z M760 269 C761 271 761 271 761 271 Z M751 273 C751.33 273.66 751.66 274.32 752 275 C753.32 274.34 754.64 273.68 756 273 C754.35 273 752.7 273 751 273 Z " fill="#000000" transform="translate(0,0)"/>
</svg>
