<?xml version="1.0" encoding="UTF-8"?>
<!-- Generator: visioncortex VTracer 0.6.0 -->
<svg version="1.1" xmlns="http://www.w3.org/2000/svg" width="720" height="1280">
<path d="M0 0 C237.60000000000002 0 475.20000000000005 0 720 0 C720 207.9 720 415.8 720 630 C719.34 630.33 718.68 630.66 718 631 C718.66 631.33 719.32 631.66 720 632 C720 655.76 720 679.52 720 704 C718.35 704.66 716.7 705.32 715 706 C714.67 706.66 714.34 707.32 714 708 C715.98 707.01 717.96 706.02 720 705 C720 894.75 720 1084.5 720 1280 C482.4 1280 244.79999999999995 1280 0 1280 C0 857.5999999999999 0 435.19999999999993 0 0 Z M716 476 C716 476.99 716 477.98 716 479 C716.66 479 717.32 479 718 479 C718 478.01 718 477.02 718 476 C717.34 476 716.68 476 716 476 Z M711 480 C712 483 712 483 712 483 Z M708 483 C707.67 483.99 707.34 484.98 707 486 C709.475 486.99 709.475 486.99 712 488 C711.34 486.35 710.68 484.7 710 483 C709.34 483 708.68 483 708 483 Z M703 488 C704 491 704 491 704 491 Z M701 491 C700.67 492.32 700.34 493.64 700 495 C700.99 495 701.98 495 703 495 C703 493.68 703 492.36 703 491 C702.34 491 701.68 491 701 491 Z M695 496 C696 498 696 498 696 498 Z M693 499 C693 500.32 693 501.64 693 503 C693.99 503 694.98 503 696 503 C695.67 501.68 695.34 500.36 695 499 C694.34 499 693.68 499 693 499 Z M685 508 C685.33 509.32 685.66 510.64 686 512 C686.66 512 687.32 512 688 512 C687.67 510.68 687.34 509.36 687 508 C686.34 508 685.68 508 685 508 Z M679 512 C680 514 680 514 680 514 Z M676 515 C675.67 515.99 675.34 516.98 675 518 C677.475 518.495 677.475 518.495 680 519 C679.67 517.68 679.34 516.36 679 515 C678.01 515 677.02 515 676 515 Z M671 520 C672 522 672 522 672 522 Z M669 523 C668.01 524.485 668.01 524.485 667 526 C667.99 526 668.98 526 670 526 C669.67 525.01 669.34 524.02 669 523 Z M670 526 C670 526.66 670 527.32 670 528 C670.66 528 671.32 528 672 528 C672 527.34 672 526.68 672 526 C671.34 526 670.68 526 670 526 Z M663 528 C664 530 664 530 664 530 Z M661 531 C660.01 532.485 660.01 532.485 659 534 C659.99 534 660.98 534 662 534 C661.67 533.01 661.34 532.02 661 531 Z M662 534 C662 534.66 662 535.32 662 536 C662.66 536 663.32 536 664 536 C664 535.34 664 534.68 664 534 C663.34 534 662.68 534 662 534 Z M655 536 C654.67 537.32 654.34 538.64 654 540 C654.66 540 655.32 540 656 540 C655.67 538.68 655.34 537.36 655 536 Z M654 542 C654 542.66 654 543.32 654 544 C654.66 544 655.32 544 656 544 C656 543.34 656 542.68 656 542 C655.34 542 654.68 542 654 542 Z M644 548 C643.67 548.66 643.34 549.32 643 550 C641.515 550.99 641.515 550.99 640 552 C642.64 552 645.28 552 648 552 C647.67 550.68 647.34 549.36 647 548 C646.01 548 645.02 548 644 548 Z M637 555 C636.67 556.32 636.34 557.64 636 559 C637.32 559.33 638.64 559.66 640 560 C639.34 558.35 638.68 556.7 638 555 C637.67 555 637.34 555 637 555 Z M619 564 C618.67 564.66 618.34 565.32 618 566 C618.66 566 619.32 566 620 566 C619.67 565.34 619.34 564.68 619 564 Z M631 564 C629.515 565.98 629.515 565.98 628 568 C629.32 567.67 630.64 567.34 632 567 C631.67 566.01 631.34 565.02 631 564 Z M620 572 C619.34 573.32 618.68 574.64 618 576 C619.32 575.34 620.64 574.68 622 574 C622 573.34 622 572.68 622 572 C621.34 572 620.68 572 620 572 Z M712 572 C712 573.32 712 574.64 712 576 C712.66 576 713.32 576 714 576 C713.34 574.68 712.68 573.36 712 572 Z M615 576 C614.5978125 577.1446875 614.5978125 577.1446875 614.1875 578.3125 C613.0557588846173 580.8738088400769 612.0877659852415 582.1969293763823 610 584 C611.98 584 613.96 584 616 584 C616 581.36 616 578.72 616 576 C615.67 576 615.34 576 615 576 Z M704 580 C704 581.32 704 582.64 704 584 C704.66 584 705.32 584 706 584 C705.34 582.68 704.68 581.36 704 580 Z M696 586 C696 586.99 696 587.98 696 589 C699.4880919054063 588.2296987782422 699.4880919054063 588.2296987782422 703 587 C703.33 586.01 703.66 585.02 704 584 C700.2331213566578 584 699.0880969537172 584.2353731693044 696 586 Z M604.9375 588.9375 C602.885887423056 590.649840036071 602.885887423056 590.649840036071 603 592 C604.65 592 606.3 592 608 592 C608 590.35 608 588.7 608 587 C606.649840036071 586.885887423056 606.649840036071 586.885887423056 604.9375 588.9375 Z M688 592 C688.33 593.32 688.66 594.64 689 596 C689.66 594.68 690.32 593.36 691 592 C690.01 592 689.02 592 688 592 Z M599 594 C599 595.32 599 596.64 599 598 C599.33 596.68 599.66 595.36 600 594 C599.67 594 599.34 594 599 594 Z M595 597 C595.33 597.99 595.66 598.98 596 600 C596.66 599.67 597.32 599.34 598 599 C597.67 598.34 597.34 597.68 597 597 C596.34 597 595.68 597 595 597 Z M680 600 C680 600.66 680 601.32 680 602 C680.99 601.67 681.98 601.34 683 601 C682.01 600.67 681.02 600.34 680 600 Z M589.4375 603.375 C587.7791420392657 604.8880706258778 587.7791420392657 604.8880706258778 588 607 C588.66 607 589.32 607 590 607 C590.66 605.35 591.32 603.7 592 602 C590.778226715209 601.8898953508514 590.778226715209 601.8898953508514 589.4375 603.375 Z M672 608 C672 608.99 672 609.98 672 611 C672.99 610.67 673.98 610.34 675 610 C675 609.34 675 608.68 675 608 C674.01 608 673.02 608 672 608 Z M581.4375 611.375 C579.7791420392657 612.8880706258778 579.7791420392657 612.8880706258778 580 615 C581.32 615.33 582.64 615.66 584 616 C584 614.02 584 612.04 584 610 C582.778226715209 609.8898953508514 582.778226715209 609.8898953508514 581.4375 611.375 Z M664 616 C664 616.66 664 617.32 664 618 C665.32 617.67 666.64 617.34 668 617 C666.68 616.67 665.36 616.34 664 616 Z M575 618 C573.309117783189 619.9795694245593 571.6416952819244 621.9794519607084 570 624 C571.9589436057443 623.8869330344014 571.9589436057443 623.8869330344014 574 623 C575.2966043359717 620.5096561368898 575.2966043359717 620.5096561368898 576 618 C575.67 618 575.34 618 575 618 Z M656 624 C656 624.66 656 625.32 656 626 C657.32 625.67 658.64 625.34 660 625 C658.68 624.67 657.36 624.34 656 624 Z M567 626 C568 628 568 628 568 628 Z M565 629 C565 629.66 565 630.32 565 631 C565.99 630.67 566.98 630.34 568 630 C567.01 629.67 566.02 629.34 565 629 Z M648 632 C648.33 632.99 648.66 633.98 649 635 C649.66 634.67 650.32 634.34 651 634 C651 633.34 651 632.68 651 632 C650.01 632 649.02 632 648 632 Z M557 636 C555.3632374343151 637.9600280953716 555.3632374343151 637.9600280953716 554 640 C555.65 639.34 557.3 638.68 559 638 C559 637.34 559 636.68 559 636 C558.34 636 557.68 636 557 636 Z M711 636 C712 638 712 638 712 638 Z M640 640 C640.33 640.66 640.66 641.32 641 642 C641.33 641.34 641.66 640.68 642 640 C641.34 640 640.68 640 640 640 Z M551 642 C549.309117783189 643.9795694245593 547.6416952819244 645.9794519607084 546 648 C548.5096561368898 647.2966043359717 548.5096561368898 647.2966043359717 551 646 C551.8869330344014 643.9589436057443 551.8869330344014 643.9589436057443 552 642 C551.67 642 551.34 642 551 642 Z M632 643 C632.33 644.32 632.66 645.64 633 647 C633.66 645.68 634.32 644.36 635 643 C634.01 643 633.02 643 632 643 Z M700 645 C700.33 645.99 700.66 646.98 701 648 C701.99 648 702.98 648 704 648 C703.67 647.01 703.34 646.02 703 645 C702.01 645 701.02 645 700 645 Z M543 650 C541.309117783189 651.9795694245593 539.6416952819244 653.9794519607084 538 656 C540.6218749382645 654.9512500246942 541.7937136071089 654.3506868679149 543.25 651.875 C543.4975 651.25625 543.745 650.6375 544 650 C543.67 650 543.34 650 543 650 Z M624 651 C624.33 652.32 624.66 653.64 625 655 C625.66 653.68 626.32 652.36 627 651 C626.01 651 625.02 651 624 651 Z M693 652 C693.33 653.32 693.66 654.64 694 656 C694.66 656 695.32 656 696 656 C696 655.01 696 654.02 696 653 C695.01 652.67 694.02 652.34 693 652 Z M535 658 C533.309117783189 659.9795694245593 531.6416952819244 661.9794519607084 530 664 C532.6218749382645 662.9512500246942 533.7937136071089 662.3506868679149 535.25 659.875 C535.4975 659.25625 535.745 658.6375 536 658 C535.67 658 535.34 658 535 658 Z M616 658 C616.33 658.99 616.66 659.98 617 661 C617.66 660.01 618.32 659.02 619 658 C618.01 658 617.02 658 616 658 Z M684 659 C683.67 659.99 683.34 660.98 683 662 C683.99 662 684.98 662 686 662 C686 662.66 686 663.32 686 664 C686.66 664 687.32 664 688 664 C687.34 662.35 686.68 660.7 686 659 C685.34 659 684.68 659 684 659 Z M611 664 C610.67 665.32 610.34 666.64 610 668 C610.99 667.01 611.98 666.02 613 665 C612.34 664.67 611.68 664.34 611 664 Z M679 664 C680 666 680 666 680 666 Z M526 667 C525.34 668.32 524.68 669.64 524 671 C525.32 669.68 526.64 668.36 528 667 C527.34 667 526.68 667 526 667 Z M675 668 C675 668.66 675 669.32 675 670 C675.99 670 676.98 670 678 670 C678 670.66 678 671.32 678 672 C678.66 672 679.32 672 680 672 C679.34 670.35 678.68 668.7 678 667 C676.77639320225 666.92546440075 676.77639320225 666.92546440075 675 668 Z M672 670 C672 670.66 672 671.32 672 672 C672.66 672 673.32 672 674 672 C674 671.34 674 670.68 674 670 C673.34 670 672.68 670 672 670 Z M604 672 C604 672.66 604 673.32 604 674 C605.32 674 606.64 674 608 674 C608 673.34 608 672.68 608 672 C606.68 672 605.36 672 604 672 Z M670 672 C669.814375 672.598125 669.62875 673.19625 669.4375 673.8125 C667.2772624657433 677.0998179869124 664.6489234490939 677.648546870706 661 679 C661 679.33 661 679.66 661 680 C663.31 680 665.62 680 668 680 C668 679.34 668 678.68 668 678 C669.32 677.34 670.64 676.68 672 676 C672 674.68 672 673.36 672 672 C671.34 672 670.68 672 670 672 Z M600 674 C600.33 675.32 600.66 676.64 601 678 C601.66 676.68 602.32 675.36 603 674 C602.01 674 601.02 674 600 674 Z M519 675 C515.999466996148 678.0744974651991 515.999466996148 678.0744974651991 515 682 C512.5 683.625 512.5 683.625 510 685 C510.99 685.495 510.99 685.495 512 686 C512 686.66 512 687.32 512 688 C515.0983062891975 686.9316185209664 515.9663460523943 686.056089912676 517.6875 683.1875 C518.8333336664534 680.4047610957559 519.564017371781 677.9646818718888 520 675 C519.67 675 519.34 675 519 675 Z M659 680 C658.87625 680.804375 658.7525 681.60875 658.625 682.4375 C658.41875 683.283125 658.2125 684.12875 658 685 C657.01 685.495 657.01 685.495 656 686 C656 686.66 656 687.32 656 688 C656.5775 687.71125 657.155 687.4225 657.75 687.125 C659.8333333333334 686.0833333333334 661.9166666666666 685.0416666666666 664 684 C664 683.01 664 682.02 664 681 C662.35 680.67 660.7 680.34 659 680 Z M592 683 C592 684.65 592 686.3 592 688 C592.66 687.67 593.32 687.34 594 687 C594 685.68 594 684.36 594 683 C593.34 683 592.68 683 592 683 Z M508 686 C507.67 686.66 507.34 687.32 507 688 C507.99 688 508.98 688 510 688 C510 687.34 510 686.68 510 686 C509.34 686 508.68 686 508 686 Z M518 686 C518 686.66 518 687.32 518 688 C518.66 688 519.32 688 520 688 C520 687.34 520 686.68 520 686 C519.34 686 518.68 686 518 686 Z M660 687 C664 688 664 688 664 688 Z M584 688 C584 688.66 584 689.32 584 690 C586.64 690 589.28 690 592 690 C592 689.34 592 688.68 592 688 C589.36 688 586.72 688 584 688 Z M647 692 C647.33 693.32 647.66 694.64 648 696 C650.31 696 652.62 696 655 696 C655 695.67 655 695.34 655 695 C653.35 695 651.7 695 650 695 C650 694.34 650 693.68 650 693 C651.98 692.67 653.96 692.34 656 692 C656 691.01 656 690.02 656 689 C652.6964445383228 689 649.9789175092307 690.6760366625641 647 692 Z M503 690 C504 692 504 692 504 692 Z M502 692 C501.01 693.485 501.01 693.485 500 695 C500.99 694.67 501.98 694.34 503 694 C502.67 693.34 502.34 692.68 502 692 Z M584 694 C584 694.66 584 695.32 584 696 C586.64 696 589.28 696 592 696 C592 695.34 592 694.68 592 694 C589.36 694 586.72 694 584 694 Z M640 695 C640 695.33 640 695.66 640 696 C641.65 696 643.3 696 645 696 C645 695.67 645 695.34 645 695 C643.35 695 641.7 695 640 695 Z M495 699 C494.34 700.32 493.68 701.64 493 703 C493.66 703 494.32 703 495 703 C495.33 701.68 495.66 700.36 496 699 C495.67 699 495.34 699 495 699 Z M584 704 C584 704.33 584 704.66 584 705 C586.64 705 589.28 705 592 705 C592 705.66 592 706.32 592 707 C592.66 707 593.32 707 594 707 C594 706.01 594 705.02 594 704 C590.7 704 587.4 704 584 704 Z M630 704 C630.66 704.66 631.32 705.32 632 706 C632 705.34 632 704.68 632 704 C631.34 704 630.68 704 630 704 Z M487 707 C485.515 708.98 485.515 708.98 484 711 C485.32 710.34 486.64 709.68 488 709 C487.67 708.34 487.34 707.68 487 707 Z M584 707 C584 707.66 584 708.32 584 709 C586.64 709 589.28 709 592 709 C592 708.34 592 707.68 592 707 C589.36 707 586.72 707 584 707 Z M630 710 C629.34 711.32 628.68 712.64 628 714 C629.98 714.99 629.98 714.99 632 716 C632 714.02 632 712.04 632 710 C631.34 710 630.68 710 630 710 Z M568 714 C568 714.99 568 715.98 568 717 C573.407873846035 715.9021357462354 573.407873846035 715.9021357462354 577 712 C573.3747143248966 711.798595240272 571.1349829173312 712.1422323452853 568 714 Z M693 712 C693.33 712.66 693.66 713.32 694 714 C694.66 713.34 695.32 712.68 696 712 C695.01 712 694.02 712 693 712 Z M697 712 C697 713.65 697 715.3 697 717 C697.99 717.495 697.99 717.495 699 718 C699.99 717.67 700.98 717.34 702 717 C701.67 715.35 701.34 713.7 701 712 C700.67 713.32 700.34 714.64 700 716 C699.34 716 698.68 716 698 716 C697.67 714.68 697.34 713.36 697 712 Z M703 712 C703 712.66 703 713.32 703 714 C703.66 714 704.32 714 705 714 C705 713.34 705 712.68 705 712 C704.34 712 703.68 712 703 712 Z M706.375 713.5 C705.92125 713.995 705.4675 714.49 705 715 C706.32 715 707.64 715 709 715 C709.33 714.01 709.66 713.02 710 712 C707.876355189606 711.7739066324223 707.876355189606 711.7739066324223 706.375 713.5 Z M579 713 C578.67 713.66 578.34 714.32 578 715 C578.66 715 579.32 715 580 715 C579.67 714.34 579.34 713.68 579 713 Z M479 715 C477.6417202926198 716.6463996453093 476.30745749270557 718.3129580739284 475 720 C475.33 720.66 475.66 721.32 476 722 C476.66 722 477.32 722 478 722 C478.66 719.69 479.32 717.38 480 715 C479.67 715 479.34 715 479 715 Z M690 715 C688.002145647721 719.1205746015755 687.8216448488773 722.4519436463714 688 727 C688.99 727.33 689.98 727.66 691 728 C691 727.01 691 726.02 691 725 C690.34 725 689.68 725 689 725 C689 723.68 689 722.36 689 721 C689.66 720.67 690.32 720.34 691 720 C691 718.35 691 716.7 691 715 C690.67 715 690.34 715 690 715 Z M624 716 C624 716.99 624 717.98 624 719 C623.34 719 622.68 719 622 719 C620.3632374343151 720.9600280953716 620.3632374343151 720.9600280953716 619 723 C620.32 723 621.64 723 623 723 C623.33 722.01 623.66 721.02 624 720 C625.32 720 626.64 720 628 720 C627.34 718.68 626.68 717.36 626 716 C625.34 716 624.68 716 624 716 Z M692 718 C692.66 719.32 693.32 720.64 694 722 C693.67 720.68 693.34 719.36 693 718 C692.67 718 692.34 718 692 718 Z M548 721 C548.33 721.66 548.66 722.32 549 723 C549.99 723 550.98 723 552 723 C552 723.66 552 724.32 552 725 C552.99 724.67 553.98 724.34 555 724 C555 723.34 555 722.68 555 722 C552.69 721.67 550.38 721.34 548 721 Z M471 723 C471.33 723.99 471.66 724.98 472 726 C472.66 726 473.32 726 474 726 C474 725.01 474 724.02 474 723 C473.01 723 472.02 723 471 723 Z M479 723 C480 727 480 727 480 727 Z M544 724 C544 725.32 544 726.64 544 728 C544.66 728 545.32 728 546 728 C546 727.34 546 726.68 546 726 C547.98 726 549.96 726 552 726 C552 725.67 552 725.34 552 725 C549.36 724.67 546.72 724.34 544 724 Z M469 725 C469 725.66 469 726.32 469 727 C469.66 727 470.32 727 471 727 C471 726.34 471 725.68 471 725 C470.34 725 469.68 725 469 725 Z M471 727 C470.67 728.98 470.34 730.96 470 733 C470.99 733.495 470.99 733.495 472 734 C472.33 732.02 472.66 730.04 473 728 C472.34 727.67 471.68 727.34 471 727 Z M480 728 C484 729 484 729 484 729 Z M488 728 C492.2162913370203 730.1081456685101 494.39790775103137 730.1770035480373 499 730 C499 729.67 499 729.34 499 729 C495.37 728.67 491.74 728.34 488 728 Z M504 728 C504.33 728.66 504.66 729.32 505 730 C505.33 729.34 505.66 728.68 506 728 C505.34 728 504.68 728 504 728 Z M508 728 C512 729 512 729 512 729 Z M514 728 C514 728.33 514 728.66 514 729 C517.3 729 520.6 729 524 729 C524 728.67 524 728.34 524 728 C520.7 728 517.4 728 514 728 Z M621 728 C620.67 729.65 620.34 731.3 620 733 C621.32 733.99 622.64 734.98 624 736 C623.4527631652248 732.6253728522202 622.9451000030855 730.9176500046283 621 728 Z M641 728 C642.98 728.99 642.98 728.99 645 730 C645 729.34 645 728.68 645 728 C643.68 728 642.36 728 641 728 Z M680 730 C680.33 730.66 680.66 731.32 681 732 C682.32 731.34 683.64 730.68 685 730 C685 729.34 685 728.68 685 728 C682.6764248855353 727.8150999345916 682.6764248855353 727.8150999345916 680 730 Z M687 728 C687 728.66 687 729.32 687 730 C686.34 730 685.68 730 685 730 C685.33 730.99 685.66 731.98 686 733 C687.32 731.68 688.64 730.36 690 729 C689.01 728.67 688.02 728.34 687 728 Z M485 729 C485.66 730.32 486.32 731.64 487 733 C488.98 732.67 490.96 732.34 493 732 C493 731.67 493 731.34 493 731 C492.236875 730.855625 491.47375 730.71125 490.6875 730.5625 C488 730 488 730 485 729 Z M467 729 C464.28564404306917 729.9330598601949 463.2195683711614 730.6267337690256 461.75 733.125 C461.5025 733.74375 461.255 734.3625 461 735 C465.82442183632435 733.7305348553886 465.82442183632435 733.7305348553886 469 730 C468.34 729.67 467.68 729.34 467 729 Z M478 730 C477.67 730.66 477.34 731.32 477 732 C478.65 731.67 480.3 731.34 482 731 C480.68 730.67 479.36 730.34 478 730 Z M647 729 C646.01 729.66 645.02 730.32 644 731 C642.68 731 641.36 731 640 731 C641.3089571993324 734.1219747763325 641.3089571993324 734.1219747763325 644 736 C645.32 734.35 646.64 732.7 648 731 C647.67 730.34 647.34 729.68 647 729 Z M502 731 C502 731.99 502 732.98 502 734 C502.66 734 503.32 734 504 734 C504 733.01 504 732.02 504 731 C503.34 731 502.68 731 502 731 Z M715.375 732.5 C714.92125 732.995 714.4675 733.49 714 734 C714.99 734 715.98 734 717 734 C717.66 733.01 718.32 732.02 719 731 C716.876355189606 730.7739066324223 716.876355189606 730.7739066324223 715.375 732.5 Z M472 734 C472 735.32 472 736.64 472 738 C470.02 738.99 470.02 738.99 468 740 C468.99 740.33 469.98 740.66 471 741 C472.32 739.68 473.64 738.36 475 737 C474.67 736.01 474.34 735.02 474 734 C473.34 734 472.68 734 472 734 Z M504 734 C504 734.66 504 735.32 504 736 C504.66 735.67 505.32 735.34 506 735 C505.34 734.67 504.68 734.34 504 734 Z M612 736 C610.246770629529 738.5318864847516 610.246770629529 738.5318864847516 609 741 C610.2280909121106 742.6455569930233 610.2280909121106 742.6455569930233 612 744 C614.1629921095484 743.7724226901694 614.1629921095484 743.7724226901694 616 743 C616 740.69 616 738.38 616 736 C616.66 736 617.32 736 618 736 C618 735.34 618 734.68 618 734 C615.3976666342949 734 614.1998989692413 734.600064292301 612 736 Z M464 735 C467.22791554805303 737.151943698702 468.28400809202407 737.2008644274582 472 737 C468.77208445194697 734.848056301298 467.71599190797593 734.7991355725418 464 735 Z M496 735 C496 735.33 496 735.66 496 736 C497.65 736 499.3 736 501 736 C501 735.67 501 735.34 501 735 C499.35 735 497.7 735 496 735 Z M508 735 C508 735.33 508 735.66 508 736 C509.65 736 511.3 736 513 736 C513 735.67 513 735.34 513 735 C511.35 735 509.7 735 508 735 Z M717 735 C717.66 735.66 718.32 736.32 719 737 C719 736.34 719 735.68 719 735 C718.34 735 717.68 735 717 735 Z M484 736 C485 739 485 739 485 739 Z M513 736 C514.7579039563346 740.2308093884723 514.7579039563346 740.2308093884723 517.9375 743.375 C520.2788300269231 744.1933382635219 520.2788300269231 744.1933382635219 524 744 C524 743.34 524 742.68 524 742 C522.68 742 521.36 742 520 742 C520.33 741.34 520.66 740.68 521 740 C521.969375 739.855625 522.93875 739.71125 523.9375 739.5625 C525.4534375 739.2840625 525.4534375 739.2840625 527 739 C527.66 738.01 528.32 737.02 529 736 C525.04 736.66 521.08 737.32 517 738 C516.67 737.34 516.34 736.68 516 736 C515.01 736 514.02 736 513 736 Z M634 736 C638 737 638 737 638 737 Z M652 736 C652.66 737.32 653.32 738.64 654 740 C654 739.01 654 738.02 654 737 C653.34 736.67 652.68 736.34 652 736 Z M655 736 C655.33 736.66 655.66 737.32 656 738 C656.66 737.34 657.32 736.68 658 736 C657.01 736 656.02 736 655 736 Z M674 736 C674.66 738.64 675.32 741.28 676 744 C676.66 744 677.32 744 678 744 C677.67 741.36 677.34 738.72 677 736 C676.01 736 675.02 736 674 736 Z M679 736 C680 738 680 738 680 738 Z M714 736 C714 736.66 714 737.32 714 738 C714.66 738 715.32 738 716 738 C716 737.34 716 736.68 716 736 C715.34 736 714.68 736 714 736 Z M632 737 C632 737.66 632 738.32 632 739 C632.66 739 633.32 739 634 739 C634.33 739.99 634.66 740.98 635 742 C634.67 740.35 634.34 738.7 634 737 C633.34 737 632.68 737 632 737 Z M528 738 C528 738.33 528 738.66 528 739 C530.31 739 532.62 739 535 739 C535 738.67 535 738.34 535 738 C532.69 738 530.38 738 528 738 Z M639 737 C638.34 737.66 637.68 738.32 637 739 C637.66 739 638.32 739 639 739 C639.33 739.66 639.66 740.32 640 741 C639.67 739.68 639.34 738.36 639 737 Z M454 739 C451.68407977705544 742.2211415696069 451.68407977705544 742.2211415696069 451 746 C449.35 746.66 447.7 747.32 446 748 C446 748.99 446 749.98 446 751 C446.33 750.67 446.66 750.34 447 750 C447.66 750.66 448.32 751.32 449 752 C450.32 751.01 451.64 750.02 453 749 C453 749.99 453 750.98 453 752 C453.99 752 454.98 752 456 752 C456 749.36 456 746.72 456 744 C455.34 743.67 454.68 743.34 454 743 C454.66 741.68 455.32 740.36 456 739 C455.34 739 454.68 739 454 739 Z M465 739 C464.67 740.98 464.34 742.96 464 745 C465.5624980927387 743.6879882663495 465.5624980927387 743.6879882663495 467 742 C467 741.01 467 740.02 467 739 C466.34 739 465.68 739 465 739 Z M627 739 C626.67 740.65 626.34 742.3 626 744 C624.02 744.33 622.04 744.66 620 745 C620.33 745.66 620.66 746.32 621 747 C621.78375 747 622.5675 747 623.375 747 C624.9166666666666 747 626.4583333333334 747 628 747 C629.3378339342763 746.6852155448762 630.6720370949539 746.3541234413456 632 746 C631.01 745.34 630.02 744.68 629 744 C628.3125 741.375 628.3125 741.375 628 739 C627.67 739 627.34 739 627 739 Z M656 739 C656 739.66 656 740.32 656 741 C656.66 741 657.32 741 658 741 C658 740.34 658 739.68 658 739 C657.34 739 656.68 739 656 739 Z M716 739 C716.33 739.99 716.66 740.98 717 742 C717.33 741.01 717.66 740.02 718 739 C717.34 739 716.68 739 716 739 Z M661 740 C660.34 741.32 659.68 742.64 659 744 C659.66 744 660.32 744 661 744 C661 743.34 661 742.68 661 742 C661.66 741.67 662.32 741.34 663 741 C662.34 740.67 661.68 740.34 661 740 Z M483 739 C481.35 739.66 479.7 740.32 478 741 C478.33 741.99 478.66 742.98 479 744 C480.32 743.34 481.64 742.68 483 742 C483 741.01 483 740.02 483 739 Z M512 742 C512 742.99 512 743.98 512 745 C512.66 745 513.32 745 514 745 C514 744.01 514 743.02 514 742 C513.34 742 512.68 742 512 742 Z M475 743 C475 743.66 475 744.32 475 745 C471.535 746.485 471.535 746.485 468 748 C468 748.99 468 749.98 468 751 C466.68 751.33 465.36 751.66 464 752 C466.64 752 469.28 752 472 752 C471.67 751.01 471.34 750.02 471 749 C472.98 748.34 474.96 747.68 477 747 C477 745.68 477 744.36 477 743 C476.34 743 475.68 743 475 743 Z M526 743 C523.7285592606241 744.8543208745102 523.7285592606241 744.8543208745102 522 747 C522.99 747.495 522.99 747.495 524 748 C525.98 746.68 527.96 745.36 530 744 C528.2185825321777 743.1364137701809 528.2185825321777 743.1364137701809 526 743 Z M666 744 C667 746 667 746 667 746 Z M669 744 C670 746 670 746 670 746 Z M520 744 C518.02 744.99 518.02 744.99 516 746 C517.32 746.33 518.64 746.66 520 747 C520 746.01 520 745.02 520 744 Z M663 746 C664 748 664 748 664 748 Z M464 747 C464 747.66 464 748.32 464 749 C464.66 749 465.32 749 466 749 C466 748.34 466 747.68 466 747 C465.34 747 464.68 747 464 747 Z M666 747 C665.67 747.66 665.34 748.32 665 749 C665.99 749.33 666.98 749.66 668 750 C668.33 749.01 668.66 748.02 669 747 C668.01 747 667.02 747 666 747 Z M479 748 C478.67 748.66 478.34 749.32 478 750 C478.66 750 479.32 750 480 750 C479.67 749.34 479.34 748.68 479 748 Z M512 748 C512 749.32 512 750.64 512 752 C512.66 752 513.32 752 514 752 C514 751.34 514 750.68 514 750 C515.98 750 517.96 750 520 750 C520 749.67 520 749.34 520 749 C517.36 748.67 514.72 748.34 512 748 Z M443 751 C443.33 751.99 443.66 752.98 444 754 C444.66 754 445.32 754 446 754 C445.67 753.01 445.34 752.02 445 751 C444.34 751 443.68 751 443 751 Z M473 751 C473 751.33 473 751.66 473 752 C474.65 752 476.3 752 478 752 C478 751.67 478 751.34 478 751 C476.35 751 474.7 751 473 751 Z M492 752 C490.515 752.99 490.515 752.99 489 754 C489 754.99 489 755.98 489 757 C490.65 756.67 492.3 756.34 494 756 C493.34 754.68 492.68 753.36 492 752 Z M495 752 C495.33 752.99 495.66 753.98 496 755 C497.65 755 499.3 755 501 755 C501.33 754.01 501.66 753.02 502 752 C499.69 752 497.38 752 495 752 Z M506 752 C506.66 752.66 507.32 753.32 508 754 C508.33 753.34 508.66 752.68 509 752 C508.01 752 507.02 752 506 752 Z M439 755 C439.33 755.99 439.66 756.98 440 758 C440.66 758 441.32 758 442 758 C442 757.01 442 756.02 442 755 C441.01 755 440.02 755 439 755 Z M447 755 C448 759 448 759 448 759 Z M437 757 C437 757.66 437 758.32 437 759 C437.66 759 438.32 759 439 759 C439 758.34 439 757.68 439 757 C438.34 757 437.68 757 437 757 Z M436 760 C436 760.66 436 761.32 436 762 C436.66 762 437.32 762 438 762 C438 761.34 438 760.68 438 760 C437.34 760 436.68 760 436 760 Z M481 760 C480.67 761.32 480.34 762.64 480 764 C480.99 764 481.98 764 483 764 C483 762.68 483 761.36 483 760 C482.34 760 481.68 760 481 760 Z M485 760 C485.33 760.99 485.66 761.98 486 763 C486.33 762.01 486.66 761.02 487 760 C486.34 760 485.68 760 485 760 Z M431 763 C431.33 763.99 431.66 764.98 432 766 C432.66 766 433.32 766 434 766 C434 765.01 434 764.02 434 763 C433.01 763 432.02 763 431 763 Z M439 763 C440 767 440 767 440 767 Z M429 765 C428.34 765.66 427.68 766.32 427 767 C427 768.32 427 769.64 427 771 C425.68 771 424.36 771 423 771 C423.33 772.65 423.66 774.3 424 776 C424.66 776 425.32 776 426 776 C426.33 775.34 426.66 774.68 427 774 C428.65 774 430.3 774 432 774 C431.835 773.2575 431.67 772.515 431.5 771.75 C431 769 431 769 431 765 C430.34 765 429.68 765 429 765 Z M473 768 C472.67 770.31 472.34 772.62 472 775 C473.65 773.35 475.3 771.7 477 770 C475.68 769.34 474.36 768.68 473 768 Z M422 773 C421.67 773.66 421.34 774.32 421 775 C421.66 775 422.32 775 423 775 C422.67 774.34 422.34 773.68 422 773 Z M420 775 C417.2012756348297 777.5278800717667 415.5422698092393 779.2041113353248 415 783 C417.3453395052666 783.769561360541 417.3453395052666 783.769561360541 420 784 C421.93654948395636 782.9802968184449 421.93654948395636 782.9802968184449 423 781 C423.2506991258069 778.3742929647876 423.2506991258069 778.3742929647876 423 776 C422.01 775.67 421.02 775.34 420 775 Z M465 776 C463.98888907319355 779.0491322814178 463.98888907319355 779.0491322814178 465 782 C465.99 780.35 466.98 778.7 468 777 C467.01 776.67 466.02 776.34 465 776 Z M468 777 C468.33 777.66 468.66 778.32 469 779 C469.33 778.34 469.66 777.68 470 777 C469.34 777 468.68 777 468 777 Z M423 782 C424 784 424 784 424 784 Z M410.375 785.25 C407.5642534197693 787.89894692794 407.5642534197693 787.89894692794 408 792 C408.66 792 409.32 792 410 792 C411.36060089765243 790.5136324177167 411.36060089765243 790.5136324177167 412.625 788.625 C413.071015625 787.998515625 413.51703125 787.37203125 413.9765625 786.7265625 C415.16996969419637 785.0477735668385 415.16996969419637 785.0477735668385 415 783 C412.67686400554095 782.7830695421814 412.67686400554095 782.7830695421814 410.375 785.25 Z M450 784 C450.33 784.99 450.66 785.98 451 787 C451.33 786.01 451.66 785.02 452 784 C451.34 784 450.68 784 450 784 Z M456 784 C456.33 784.66 456.66 785.32 457 786 C457.66 785.67 458.32 785.34 459 785 C458.01 784.67 457.02 784.34 456 784 Z M455 786 C454.67 786.66 454.34 787.32 454 788 C454.99 788.33 455.98 788.66 457 789 C456.67 788.01 456.34 787.02 456 786 C455.67 786 455.34 786 455 786 Z M415 787 C414.67 788.32 414.34 789.64 414 791 C414.66 791 415.32 791 416 791 C415.67 789.68 415.34 788.36 415 787 Z M452 789 C452 790.32 452 791.64 452 793 C452.33 791.68 452.66 790.36 453 789 C452.67 789 452.34 789 452 789 Z M405 791 C404.67 791.99 404.34 792.98 404 794 C404.99 794.99 405.98 795.98 407 797 C407 795.02 407 793.04 407 791 C406.34 791 405.68 791 405 791 Z M449 793 C449.33 793.99 449.66 794.98 450 796 C450.66 795.01 451.32 794.02 452 793 C451.01 793 450.02 793 449 793 Z M402 795 C402 795.66 402 796.32 402 797 C402.66 797 403.32 797 404 797 C404 796.34 404 795.68 404 795 C403.34 795 402.68 795 402 795 Z M407 800 C407.33 801.65 407.66 803.3 408 805 C408.33 804.34 408.66 803.68 409 803 C411 804 411 804 413 807 C412.34414810569143 803.3900762051686 412.34414810569143 803.3900762051686 411 800 C409.68 800 408.36 800 407 800 Z M441 800 C441 801.65 441 803.3 441 805 C441.28875 804.360625 441.5775 803.72125 441.875 803.0625 C443 801 443 801 445 800 C443.68 800 442.36 800 441 800 Z M404 804 C404.33 805.32 404.66 806.64 405 808 C403.35 807.67 401.7 807.34 400 807 C399.67 807.66 399.34 808.32 399 809 C399.99 810.485 399.99 810.485 401 812 C401 811.01 401 810.02 401 809 C402.65 809 404.3 809 406 809 C406.33 807.68 406.66 806.36 407 805 C406.01 804.67 405.02 804.34 404 804 Z M415 804 C414.67 805.65 414.34 807.3 414 809 C414.99 809.33 415.98 809.66 417 810 C417.66 809.34 418.32 808.68 419 808 C418.01 808 417.02 808 416 808 C415.67 806.68 415.34 805.36 415 804 Z M440 805 C441 807 441 807 441 807 Z M422 808 C422.33 808.99 422.66 809.98 423 811 C423.33 810.01 423.66 809.02 424 808 C423.34 808 422.68 808 422 808 Z M432 808 C436 809 436 809 436 809 Z M439 808 C436.6571258164988 810.672476338848 436.6571258164988 810.672476338848 436 814 C435.01 813.67 434.02 813.34 433 813 C433 813.66 433 814.32 433 815 C434.32 815.33 435.64 815.66 437 816 C438.6275003661469 813.6767654679398 438.6275003661469 813.6767654679398 440 811 C439.67 810.01 439.34 809.02 439 808 Z M411 809 C410.67 811.31 410.34 813.62 410 816 C410.66 815.34 411.32 814.68 412 814 C415 814 418 814 421 814 C421 813.34 421 812.68 421 812 C418.23735711289936 811.4026718081944 415.83967231004675 811 413 811 C412.34 810.34 411.68 809.68 411 809 Z M422 814 C421.67 814.66 421.34 815.32 421 816 C421.99 816 422.98 816 424 816 C424 815.34 424 814.68 424 814 C423.34 814 422.68 814 422 814 Z M429 816 C427.6666666666667 819 427.6666666666667 819 429 822 C430.32 821.34 431.64 820.68 433 820 C432.34 819.34 431.68 818.68 431 818 C431.33 817.34 431.66 816.68 432 816 C431.01 816 430.02 816 429 816 Z M434 816 C434 816.99 434 817.98 434 819 C434.66 818.01 435.32 817.02 436 816 C435.34 816 434.68 816 434 816 Z M382 820 C386 821 386 821 386 821 Z M376 823 C379.3 823.33 382.6 823.66 386 824 C381.05849655014214 820.206875466111 381.05849655014214 820.206875466111 376 823 Z M375 823 C375 823.66 375 824.32 375 825 C373.576875 825.37125 373.576875 825.37125 372.125 825.75 C368.558820888277 826.7750851587294 368.558820888277 826.7750851587294 367 831 C369.97 829.68 372.94 828.36 376 827 C375.67 825.68 375.34 824.36 375 823 Z M372 830 C372.33 830.99 372.66 831.98 373 833 C373.99 832.67 374.98 832.34 376 832 C376 831.01 376 830.02 376 829 C373.92546440075 828.8509288015 373.92546440075 828.8509288015 372 830 Z M368 832 C368.33 832.66 368.66 833.32 369 834 C369.33 833.34 369.66 832.68 370 832 C369.34 832 368.68 832 368 832 Z M366 833 C367.29299694213114 835.8843777939849 368.6594136333071 837.8721942120974 371 840 C371.66 839.67 372.32 839.34 373 839 C372.67 838.34 372.34 837.68 372 837 C373.32 836.67 374.64 836.34 376 836 C374.68 835.34 373.36 834.68 372 834 C372 834.66 372 835.32 372 836 C370.02 835.01 368.04 834.02 366 833 Z M384 835 C385 837 385 837 385 837 Z M386 838 C386 838.66 386 839.32 386 840 C387.32 839.67 388.64 839.34 390 839 C388.68 838.67 387.36 838.34 386 838 Z M374 839 C373.67 839.66 373.34 840.32 373 841 C373.99 840.67 374.98 840.34 376 840 C375.34 839.67 374.68 839.34 374 839 Z M403 840 C402.67 840.99 402.34 841.98 402 843 C402.66 843 403.32 843 404 843 C403.67 842.01 403.34 841.02 403 840 Z M376 841 C376.33 841.66 376.66 842.32 377 843 C377.33 842.34 377.66 841.68 378 841 C377.34 841 376.68 841 376 841 Z M380 841 C379.01 842.485 379.01 842.485 378 844 C379.65 843.34 381.3 842.68 383 842 C382.01 841.67 381.02 841.34 380 841 Z M392 843 C392.66 844.65 393.32 846.3 394 848 C393.01 848.495 393.01 848.495 392 849 C393.98 849.99 395.96 850.98 398 852 C399.61949010591127 849.4278686553174 400.0440875108484 848.3233084128881 399.625 845.25 C399.41875 844.5075 399.2125 843.765 399 843 C396.69 843 394.38 843 392 843 Z M383 843 C382.01 843.495 382.01 843.495 381 844 C381 844.66 381 845.32 381 846 C381.99 845.67 382.98 845.34 384 845 C383.67 844.34 383.34 843.68 383 843 Z M388 849 C388.33 849.66 388.66 850.32 389 851 C389.66 851 390.32 851 391 851 C391 850.34 391 849.68 391 849 C390.01 849 389.02 849 388 849 Z M392 851 C392.99 852.485 392.99 852.485 394 854 C394.99 854 395.98 854 397 854 C397 853.34 397 852.68 397 852 C395.35 851.67 393.7 851.34 392 851 Z M5 1222 C2.8020259682413253 1224.1979740317586 2.541024833954456 1225.1754614496303 1.875 1228.125 C1.441875 1230.043125 1.441875 1230.043125 1 1232 C1.99 1232 2.98 1232 4 1232 C4 1230.35 4 1228.7 4 1227 C4.66 1227.33 5.32 1227.66 6 1228 C6.625000000000001 1230.0625 6.625000000000001 1230.0625 7 1232 C7.66 1232 8.32 1232 9 1232 C8.979375000000001 1231.236875 8.95875 1230.47375 8.9375 1229.6875 C9 1227 9 1227 10 1224 C9.34 1223.34 8.68 1222.68 8 1222 C7.01 1222 6.02 1222 5 1222 Z M6 1240 C6.66 1240.66 7.32 1241.32 8 1242 C8 1241.34 8 1240.68 8 1240 C7.34 1240 6.68 1240 6 1240 Z M4 1244 C5 1248 5 1248 5 1248 Z M7 1258 C5.16452010464099 1259.333785745283 5.16452010464099 1259.333785745283 4 1261 C5.32 1261 6.640000000000001 1261 8 1261 C9.341640786499873 1261.298142397 10.67851173410534 1261.62243192403 12 1262 C12 1261.01 12 1260.02 12 1259 C9.654660494733362 1258.230438639459 9.654660494733362 1258.230438639459 7 1258 Z M8 1262 C7.67 1262.66 7.34 1263.32 7 1264 C6.01 1264.495 6.01 1264.495 5 1265 C5.99 1267.31 6.98 1269.62 8 1272 C8.33 1272 8.66 1272 9 1272 C9 1269.36 9 1266.72 9 1264 C9.99 1263.67 10.98 1263.34 12 1263 C10.68 1262.67 9.36 1262.34 8 1262 Z M12 1264 C12 1266.64 12 1269.28 12 1272 C11.01 1272.495 11.01 1272.495 10 1273 C10.99 1273 11.98 1273 13 1273 C13 1270.03 13 1267.06 13 1264 C12.67 1264 12.34 1264 12 1264 Z " fill="#000000" transform="translate(0,0)"/>
<path d="M0 0 C0.9900000000000091 0 1.9800000000000182 0 3 0 C3 1.32000000000005 3 2.6399999999999864 3 4 C1.3500000000000227 4.330000000000041 -0.30000000000001137 4.659999999999968 -2 5 C-1.339999999999975 4.669999999999959 -0.6800000000000068 4.340000000000032 0 4 C-0.3299999999999841 3.009999999999991 -0.660000000000025 2.019999999999982 -1 1 C-0.6700000000000159 0.6699999999999591 -0.339999999999975 0.34000000000003183 0 0 Z " fill="#000000" transform="translate(396,844)"/>
</svg>
