<?xml version="1.0" encoding="UTF-8"?>
<!-- Generator: visioncortex VTracer 0.6.0 -->
<svg version="1.1" xmlns="http://www.w3.org/2000/svg" width="744" height="1052">
<path d="M0 0 C9.831004507248451 4.729590670658126 16.190144998248286 12.089037993282375 22.984375 20.35546875 C23.704276123046895 21.223652343750018 23.704276123046895 21.223652343750018 24.438720703125 22.109375 C25.39063199608023 23.258756403534733 26.336085935016285 24.41352449480337 27.274169921875 25.57421875 C30.151920555292122 29.046089008478248 32.25755506210953 30.647501787265696 36.26953125 33.0546875 C36.26953125 21.834687499999973 36.26953125 10.614687500000002 36.26953125 -0.9453125 C38.909531249999986 -0.9453125 41.54953124999997 -0.9453125 44.26953125 -0.9453125 C44.26953125 14.564687499999991 44.26953125 30.074687499999982 44.26953125 46.0546875 C30.014370868424066 44.01823601691774 21.124196163065676 33.05812397040427 12.51953125 22.1796875 C8.010650458416933 16.508808391892842 2.9824159974934332 11.942789077409941 -3.73046875 9.0546875 C-7.944837933517306 8.720213755276404 -10.633598326512526 8.615939330604988 -14.54296875 10.1796875 C-17.423520250391732 12.648731643192889 -18.52463702313139 14.437192319394228 -19.73046875 18.0546875 C-19.787642917445908 22.759304706976025 -19.221271798904695 26.998483923832282 -16.73046875 31.0546875 C-13.140255595554777 33.208815392667134 -9.86715393320992 34.4463514436456 -5.73046875 35.0546875 C-6.060468749999984 38.02468750000003 -6.390468750000025 40.9946875 -6.73046875 44.0546875 C-14.21511401505012 43.53850506792759 -18.171798890097307 41.72966053535282 -23.48046875 36.1796875 C-28.221279069986508 29.595228722241018 -28.54463036461874 22.97240920216717 -27.73046875 15.0546875 C-25.81768379901291 7.816535355923975 -22.265758764419388 3.730318847418971 -15.86328125 -0.046875 C-10.848826431241775 -2.1591911324439366 -5.066920690586699 -1.7542128857252806 0 0 Z " fill="#000000" transform="translate(382.73046875,334.9453125)"/>
<path d="M0 0 C2.6399999999999864 0 5.279999999999973 0 8 0 C8 15.509999999999991 8 31.019999999999982 8 47 C5.360000000000014 47 2.7200000000000273 47 0 47 C0 31.49000000000001 0 15.980000000000018 0 0 Z " fill="#000000" transform="translate(377,417)"/>
<path d="M0 0 C2.6399999999999864 0 5.279999999999973 0 8 0 C8 15.509999999999991 8 31.019999999999982 8 47 C5.360000000000014 47 2.7200000000000273 47 0 47 C0 31.49000000000001 0 15.980000000000018 0 0 Z " fill="#000000" transform="translate(399,417)"/>
<path d="M0 0 C23.75999999999999 0 47.51999999999998 0 72 0 C72 2.9700000000000273 72 5.940000000000055 72 9 C54.18000000000001 9.330000000000041 36.360000000000014 9.659999999999968 18 10 C21.464999999999975 15.44500000000005 21.464999999999975 15.44500000000005 25 21 C25.660000000000025 22.649999999999977 26.319999999999993 24.299999999999955 27 26 C23.721027399676075 26.906949868174706 21.25691433373811 27.062574479140608 18 26 C15.321133264834259 22.94795779923902 13.280019609880753 19.728159164225985 11.14453125 16.2890625 C8.210271148443042 11.78879473039899 4.8614225135372635 8.430711256768632 0 6 C0 4.019999999999982 0 2.0399999999999636 0 0 Z " fill="#000000" transform="translate(355,517)"/>
<path d="M0 0 C2.6399999999999864 0 5.279999999999973 0 8 0 C8.329999999999984 6.269999999999982 8.660000000000025 12.539999999999964 9 19 C15.269999999999982 19.33000000000004 21.54000000000002 19.659999999999968 28 20 C28 22.639999999999986 28 25.279999999999973 28 28 C21.399999999999977 28 14.800000000000011 28 8 28 C8 34.26999999999998 8 40.539999999999964 8 47 C5.360000000000014 47 2.7200000000000273 47 0 47 C0 40.73000000000002 0 34.460000000000036 0 28 C-6.269999999999982 28 -12.54000000000002 28 -19 28 C-19 25.360000000000014 -19 22.720000000000027 -19 20 C-12.730000000000018 20 -6.4599999999999795 20 0 20 C0 13.399999999999977 0 6.7999999999999545 0 0 Z " fill="#000000" transform="translate(388,587)"/>
<path d="M0 0 C23.75999999999999 0 47.51999999999998 0 72 0 C72 2.9700000000000273 72 5.940000000000055 72 9 C54.18000000000001 9.330000000000041 36.360000000000014 9.659999999999968 18 10 C21.464999999999975 15.44500000000005 21.464999999999975 15.44500000000005 25 21 C25.660000000000025 22.649999999999977 26.319999999999993 24.299999999999955 27 26 C23.721027399676075 26.906949868174706 21.25691433373811 27.062574479140608 18 26 C15.321133264834259 22.94795779923902 13.280019609880753 19.728159164225985 11.14453125 16.2890625 C8.210271148443042 11.78879473039899 4.8614225135372635 8.430711256768632 0 6 C0 4.019999999999982 0 2.0399999999999636 0 0 Z " fill="#000000" transform="translate(355,687)"/>
</svg>
