<?xml version="1.0" encoding="UTF-8"?>
<!-- Generator: visioncortex VTracer 0.6.0 -->
<svg version="1.1" xmlns="http://www.w3.org/2000/svg" width="744" height="1052">
<path d="M0 0 C1.02996093750005 -0.020624999999995453 2.0599218749999864 -0.041249999999990905 3.12109375 -0.0625 C14.131501743689455 -0.11789827921353435 24.67482431527469 1.9258545832949494 32.90625 9.6953125 C38.017595313944526 15.371283168391926 38.84797675535697 21.118069253581325 38.6875 28.5 C38.04976306844026 34.11208499772562 35.652144780480285 38.339067512202234 31.5625 42.1875 C28.03425467599061 44.470482268476644 25.534390455247262 45.000436572685146 21.375 45.25 C20.020603323207183 42.54120664641448 20.309985492973624 40.240667323211255 20.375 37.25 C21.206445312500023 36.903886718750016 21.206445312500023 36.903886718750016 22.0546875 36.55078125 C26.575907693220074 34.551138223837256 26.575907693220074 34.551138223837256 29.9375 31.0625 C30.75322660250663 25.818543269600355 30.366922791376396 21.190718504866766 27.9375 16.4375 C21.53055603143696 10.968157587812016 14.579755178648497 9.72066095621625 6.375 10.25 C7.158750000000055 11.136874999999975 7.9424999999999955 12.023750000000007 8.75 12.9375 C12.705570598038662 17.75590044520294 13.783193749816633 21.784490840692172 13.62890625 27.9765625 C13.003260125879251 33.57850164212721 10.307873251603496 38.31712674839645 6.375 42.25 C-1.0660106396724132 46.80666012367567 -8.285909436153815 48.421120121117326 -16.9296875 46.82421875 C-23.55195229194544 44.956694249849306 -29.168830070960666 41.29691085623597 -32.7890625 35.33203125 C-35.46349493321895 29.07085999279127 -35.58172102922458 22.495163087673802 -33.4375 16.0625 C-30.27509049039361 8.751241317240328 -26.14243080653523 5.618572061280275 -19.125 2.23046875 C-12.90183543983153 -0.2101786009410489 -6.588229833215337 0.03225571521770121 0 0 Z M-23.625 14.25 C-24.522187499999973 15.11624999999998 -24.522187499999973 15.11624999999998 -25.4375 16 C-27.198934530636052 19.337454900152466 -27.848219539039974 22.51804833167489 -27.625 26.25 C-25.88351134042398 31.63773054056327 -22.572706719156713 34.569992193790085 -17.625 37.25 C-12.387605346259306 39.344957861496255 -6.489655743942649 38.91609487663243 -1.375 36.75 C2.339688258002411 34.669188431414796 4.184076218038172 32.309562476319 5.8125 28.3984375 C6.76391031299363 24.76457866564931 6.646176530597586 21.785916326489712 5.375 18.25 C3.146394851321247 14.519149899248987 0.46558206293343574 11.804279885743313 -3.625 10.25 C-11.068105601315324 9.478786648538403 -18.026387172464638 8.802701032668324 -23.625 14.25 Z " fill="#000000" transform="translate(574.625,247.75)"/>
<path d="M0 0 C2.6399999999999864 0 5.279999999999973 0 8 0 C8 15.509999999999991 8 31.019999999999982 8 47 C5.360000000000014 47 2.7200000000000273 47 0 47 C0 31.49000000000001 0 15.980000000000018 0 0 Z " fill="#000000" transform="translate(562,332)"/>
<path d="M0 0 C2.6399999999999864 0 5.279999999999973 0 8 0 C8 15.509999999999991 8 31.019999999999982 8 47 C5.360000000000014 47 2.7200000000000273 47 0 47 C0 31.49000000000001 0 15.980000000000018 0 0 Z " fill="#000000" transform="translate(584,332)"/>
<path d="M0 0 C5.635064589247349 4.108143861838414 9.339853463269037 9.495162111369496 10.81640625 16.32421875 C11.721491099691093 24.205999316059717 10.304321044891935 30.414638358026934 6.06640625 37.07421875 C1.6268926688753709 41.51373233112463 -2.887495673807507 43.70996527915196 -9.18359375 44.32421875 C-9.678593750000005 39.869218750000016 -9.678593750000005 39.869218750000016 -10.18359375 35.32421875 C-9.496523437499945 35.03289062499999 -8.809453125000005 34.741562499999986 -8.1015625 34.44140625 C-2.4132822041232203 31.862347076693595 -2.4132822041232203 31.862347076693595 2.00390625 27.57421875 C3.236920312803136 22.642162498787627 3.314236066675221 18.037595071746296 0.80078125 13.484375 C-1.735580548169196 10.201552292875931 -4.129710985526799 8.153422042733155 -8.18359375 7.32421875 C-12.737375446677333 7.2660500056993556 -16.176537861524253 7.724270561120818 -20.12109375 10.07421875 C-24.688811664209993 15.057183747319925 -24.435929928447308 19.88964619959387 -24.18359375 26.32421875 C-26.823593749999986 26.32421875 -29.463593749999973 26.32421875 -32.18359375 26.32421875 C-32.347949218750045 25.436699218749993 -32.347949218750045 25.436699218749993 -32.515625 24.53125 C-33.750226146310524 17.942667450889758 -33.750226146310524 17.942667450889758 -37.18359375 12.32421875 C-41.37588504071675 10.389315077361516 -43.452588622775465 10.129284049406806 -47.93359375 11.32421875 C-51.78558222592949 13.69467319672583 -52.88122213431939 15.01011277305787 -54.18359375 19.32421875 C-54.46756018575468 23.849933819839634 -53.759748724797646 26.56698649740889 -50.99609375 30.19921875 C-48.0893339458288 32.3954372687071 -45.69481571437734 33.425999177717415 -42.18359375 34.32421875 C-42.76953125 40.4765625 -42.76953125 40.4765625 -43.18359375 42.32421875 C-45.18359375 43.32421875 -45.18359375 43.32421875 -48.87109375 42.38671875 C-54.96794883499717 39.965745328270714 -58.78861731161089 35.17482277627346 -61.62109375 29.38671875 C-63.11658387029797 21.244605872822433 -62.28516081499879 14.632930155542965 -58.18359375 7.32421875 C-54.95946671597824 3.1299136723060315 -50.654806288215696 1.3179515481632507 -45.55859375 0.4140625 C-41.37234026867634 0.2557009373841197 -37.84034417984901 1.3196145986971715 -34.18359375 3.32421875 C-31.74609375 5.94921875 -31.74609375 5.94921875 -30.18359375 8.32421875 C-29.523593750000032 8.654218749999984 -28.86359374999995 8.984218750000025 -28.18359375 9.32421875 C-28.14234375000001 8.602343749999989 -28.101093750000018 7.880468749999977 -28.05859375 7.13671875 C-26.61021950717418 2.48123011234577 -23.016666462318653 0.3935111655192145 -18.93359375 -1.98828125 C-12.268553142535893 -3.6545414018660267 -6.021494202163581 -3.4669209042759803 0 0 Z " fill="#000000" transform="translate(602.18359375,420.67578125)"/>
<path d="M0 0 C2.6399999999999864 0 5.279999999999973 0 8 0 C8.330000000000041 6.269999999999982 8.659999999999968 12.539999999999964 9 19 C15.269999999999982 19.33000000000004 21.539999999999964 19.659999999999968 28 20 C28 22.639999999999986 28 25.279999999999973 28 28 C21.399999999999977 28 14.799999999999955 28 8 28 C8 34.26999999999998 8 40.539999999999964 8 47 C5.360000000000014 47 2.7200000000000273 47 0 47 C0 40.73000000000002 0 34.460000000000036 0 28 C-6.269999999999982 28 -12.539999999999964 28 -19 28 C-19 25.360000000000014 -19 22.720000000000027 -19 20 C-12.730000000000018 20 -6.460000000000036 20 0 20 C0 13.399999999999977 0 6.800000000000011 0 0 Z " fill="#000000" transform="translate(573,502)"/>
<path d="M0 0 C23.75999999999999 0 47.51999999999998 0 72 0 C72 2.9700000000000273 72 5.940000000000055 72 9 C54.17999999999995 9.330000000000041 36.360000000000014 9.659999999999968 18 10 C21.465000000000032 15.44500000000005 21.465000000000032 15.44500000000005 25 21 C25.659999999999968 22.649999999999977 26.32000000000005 24.299999999999955 27 26 C23.72102739967613 26.906949868174706 21.25691433373811 27.062574479140608 18 26 C15.321133264834316 22.94795779923902 13.28001960988081 19.728159164225985 11.14453125 16.2890625 C8.210271148442985 11.78879473039899 4.8614225135372635 8.430711256768632 0 6 C0 4.019999999999982 0 2.0399999999999636 0 0 Z " fill="#000000" transform="translate(540,602)"/>
<path d="M0 0 C2.6399999999999864 0 5.279999999999973 0 8 0 C8.330000000000041 6.269999999999982 8.659999999999968 12.539999999999964 9 19 C15.269999999999982 19.33000000000004 21.539999999999964 19.659999999999968 28 20 C28 22.639999999999986 28 25.279999999999973 28 28 C21.399999999999977 28 14.799999999999955 28 8 28 C8 34.26999999999998 8 40.539999999999964 8 47 C5.360000000000014 47 2.7200000000000273 47 0 47 C0 40.73000000000002 0 34.460000000000036 0 28 C-6.269999999999982 28 -12.539999999999964 28 -19 28 C-19 25.360000000000014 -19 22.720000000000027 -19 20 C-12.730000000000018 20 -6.460000000000036 20 0 20 C0 13.399999999999977 0 6.7999999999999545 0 0 Z " fill="#000000" transform="translate(573,672)"/>
<path d="M0 0 C4.991918744569489 4.227605826740728 7.541492961574363 10.055583285872444 8.28515625 16.453125 C8.538778748477398 23.64277147857638 7.3234117534722145 29.319140284455216 2.5625 34.8125 C1.716874999999959 35.534374999999955 0.8712500000000318 36.25625000000002 0 37 C-0.5774999999999864 37.55687499999999 -1.1549999999999727 38.11374999999998 -1.75 38.6875 C-5.2893951798456555 40.75214718824327 -8.988096569242202 41.23301846176685 -13 42 C-13.495000000000005 37.54499999999996 -13.495000000000005 37.54499999999996 -14 33 C-13.312929687499945 32.68546875000004 -12.625859375000005 32.37093749999997 -11.91796875 32.046875 C-11.01691406249995 31.61890625000001 -10.115859375000014 31.190937500000018 -9.1875 30.75 C-7.847519531249986 30.123515624999982 -7.847519531249986 30.123515624999982 -6.48046875 29.484375 C-3.8296639330197877 27.898066605586678 -2.5691204892718815 26.640107489885963 -1 24 C0.02290610028910578 19.46998727014818 0.3928162149708214 17.13480239880448 -1.125 12.75 C-3.8169007756473547 8.801878862383887 -6.458765892318297 6.51374470256053 -11 5 C-18.33867301363 4.345527699076911 -24.18619920063111 4.175782315417337 -30 9 C-32.96417798025743 13.724158656035343 -33.40134900372709 17.492757716907477 -32.58984375 22.86328125 C-31.715419510617266 26.03089753438644 -29.91662824046398 28.364636169362143 -28 31 C-26.923930863636542 34.4765310559435 -27.04621979711135 36.54891743382268 -28 40 C-35.59880033418415 39.28558287456394 -43.01102344343144 37.95618988599949 -50.5 36.5 C-51.69109375000005 36.2744140625 -52.882187499999986 36.048828125 -54.109375 35.81640625 C-55.80320312499998 35.489628906250005 -55.80320312499998 35.489628906250005 -57.53125 35.15625 C-58.557988281250005 34.958378906250005 -59.58472656250001 34.76050781250001 -60.642578125 34.556640625 C-63 34 -63 34 -64 33 C-64.08851529144795 30.406406782841145 -64.11525944882135 27.839603086591865 -64.09765625 25.24609375 C-64.09553382873537 24.08292381286617 -64.09553382873537 24.08292381286617 -64.09336853027344 22.896255493164063 C-64.08775345319953 20.409965056533565 -64.07519846391313 17.92376339671864 -64.0625 15.4375 C-64.0574869392085 13.755860671909886 -64.05292369687743 12.07421993788671 -64.048828125 10.392578125 C-64.03777913126874 6.261684339285466 -64.02050444601844 2.1308572401848096 -64 -2 C-61.360000000000014 -2 -58.72000000000003 -2 -56 -2 C-55.66999999999996 7.240000000000009 -55.34000000000003 16.480000000000018 -55 26 C-50.154185346893996 26.94546309489283 -50.154185346893996 26.94546309489283 -45.30712890625 27.884521484375 C-40.22222222222217 28.888888888888914 -40.22222222222217 28.888888888888914 -38 30 C-38.21656250000001 29.454726562500014 -38.43312500000002 28.909453125000027 -38.65625 28.34765625 C-41.2419264313595 21.34478258173465 -42.11271127662121 15.585403002446128 -39.875 8.375 C-35.440433243570396 0.39277983842669073 -31.30973460069515 -2.953599588963698 -22.6875 -5.75 C-14.195080832108943 -6.5399924807340994 -7.128848951950431 -4.693370306444194 0 0 Z " fill="#000000" transform="translate(605,763)"/>
</svg>
