<?xml version="1.0" encoding="UTF-8"?>
<!-- Generator: visioncortex VTracer 0.6.0 -->
<svg version="1.1" xmlns="http://www.w3.org/2000/svg" width="1052" height="744">
<path d="M0 0 C1.9800000000000182 0 3.9599999999999795 0 6 0 C6 23.760000000000005 6 47.52000000000001 6 72 C3.0299999999999727 72 0.060000000000002274 72 -3 72 C-3.329999999999984 54.18000000000001 -3.660000000000025 36.36 -4 18 C-9.444999999999993 21.465000000000003 -9.444999999999993 21.465000000000003 -15 25 C-16.649999999999977 25.659999999999997 -18.30000000000001 26.319999999999993 -20 27 C-20.906949868174706 23.721027399676103 -21.062574479140665 21.25691433373811 -20 18 C-16.94795779923902 15.321133264834259 -13.728159164225929 13.280019609880753 -10.2890625 11.14453125 C-5.7887947303989336 8.210271148443027 -2.4307112567686318 4.861422513537271 0 0 Z " fill="#000000" transform="translate(359,59)"/>
<path d="M0 0 C1.9800000000000182 0 3.9600000000000364 0 6 0 C6 23.760000000000005 6 47.52000000000001 6 72 C3.0299999999999727 72 0.05999999999994543 72 -3 72 C-3.330000000000041 54.18000000000001 -3.659999999999968 36.36 -4 18 C-9.44500000000005 21.465000000000003 -9.44500000000005 21.465000000000003 -15 25 C-16.649999999999977 25.659999999999997 -18.30000000000001 26.319999999999993 -20 27 C-20.906949868174706 23.721027399676103 -21.062574479140665 21.25691433373811 -20 18 C-16.94795779923902 15.321133264834259 -13.728159164225985 13.280019609880753 -10.2890625 11.14453125 C-5.78879473039899 8.210271148443027 -2.4307112567686318 4.861422513537271 0 0 Z " fill="#000000" transform="translate(529,59)"/>
<path d="M0 0 C4.185904912171168 2.7963217241143496 6.957735315170112 6.647833074273322 8.90625 11.2734375 C10.376117682088648 20.95909191039435 7.17765351843309 27.764205623240827 1.59375 35.4609375 C-2.7567597551116023 40.01379654604699 -7.534403445371481 43.9937124797093 -12.39453125 47.98828125 C-13.262714843750018 48.70818237304687 -13.262714843750018 48.70818237304687 -14.1484375 49.442626953125 C-15.297818903534676 50.39453824608022 -16.45258699480337 51.3399921850163 -17.61328125 52.278076171875 C-21.085151508478248 55.15582680529215 -22.686564287265696 57.26146131210953 -25.09375 61.2734375 C-13.873749999999973 61.2734375 -2.6537499999999454 61.2734375 8.90625 61.2734375 C8.90625 63.9134375 8.90625 66.5534375 8.90625 69.2734375 C-6.603749999999991 69.2734375 -22.113749999999982 69.2734375 -38.09375 69.2734375 C-36.05729851691774 55.01827711842405 -25.097186470404267 46.12810241306569 -14.21875 37.5234375 C-8.547870891892785 33.01455670841695 -3.981851577409998 27.986322247493405 -1.09375 21.2734375 C-0.7592762552764043 17.059068316482694 -0.6550018306049878 14.370307923487488 -2.21875 10.4609375 C-4.687794143192946 7.580385999608296 -6.476254819394171 6.479269226868595 -10.09375 5.2734375 C-14.798367206975968 5.216263332554107 -19.037546423832282 5.7826344510952765 -23.09375 8.2734375 C-25.247877892667134 11.863650654445223 -26.485413943645653 15.136752316790108 -27.09375 19.2734375 C-30.063750000000027 18.9434375 -33.033750000000055 18.613437500000003 -36.09375 18.2734375 C-35.57756756792753 10.78879223494988 -33.76872303535288 6.8321073599027216 -28.21875 1.5234375 C-19.94813175528327 -4.431407636196063 -9.031285323980569 -4.613808806816152 0 0 Z " fill="#000000" transform="translate(709.09375,61.7265625)"/>
<path d="M0 0 C2.6399999999999864 0 5.279999999999973 0 8 0 C8 6.269999999999996 8 12.540000000000006 8 19 C14.600000000000023 19 21.19999999999999 19 28 19 C28 21.64 28 24.28 28 27 C21.730000000000018 27.33 15.45999999999998 27.659999999999997 9 28 C8.670000000000016 34.27000000000001 8.339999999999975 40.53999999999999 8 47 C5.360000000000014 47 2.7200000000000273 47 0 47 C0 40.400000000000006 0 33.8 0 27 C-6.269999999999982 27 -12.54000000000002 27 -19 27 C-19 24.36 -19 21.72 -19 19 C-12.730000000000018 19 -6.4599999999999795 19 0 19 C0 12.730000000000004 0 6.459999999999994 0 0 Z " fill="#000000" transform="translate(437,73)"/>
<path d="M0 0 C15.509999999999991 0 31.019999999999982 0 47 0 C47 2.6400000000000006 47 5.280000000000001 47 8 C31.49000000000001 8 15.980000000000018 8 0 8 C0 5.359999999999999 0 2.719999999999999 0 0 Z " fill="#000000" transform="translate(588,81)"/>
<path d="M0 0 C15.509999999999991 0 31.019999999999982 0 47 0 C47 2.6400000000000006 47 5.280000000000001 47 8 C31.49000000000001 8 15.980000000000018 8 0 8 C0 5.359999999999999 0 2.719999999999999 0 0 Z " fill="#000000" transform="translate(588,103)"/>
</svg>
